M48
; DRILL file KiCad 10.0.1 date 2026-10-05T11:04:37
; FORMAT={-:-/ absolute / metric / decimal}
; #@! TF.CreationDate,2026-10-05T11:04:37+01:00
; #@! TF.GenerationSoftware,Kicad,Pcbnew,10.0.1
; #@! TF.FileFunction,Plated,1,2,PTH
FMAT,2
METRIC
; #@! TA.AperFunction,Plated,PTH,ViaDrill
T1C0.300
; #@! TA.AperFunction,Plated,PTH,ComponentDrill
T2C1.000
%
G90
G05
T1
X92.17Y-105.751
X104.535Y-127.723
X104.54Y-112.402
X111.128Y-107.924
X131.936Y-98.04
X132.225Y-90.42
X132.939Y-87.956
X134.08Y-82.8
X135.019Y-72.641
X136.62Y-77.72
T2
X83.28Y-128.77
X83.28Y-131.31
X85.82Y-128.77
X85.82Y-131.31
X88.36Y-128.77
X88.36Y-131.31
X90.9Y-128.77
X90.9Y-131.31
X93.44Y-128.77
X93.44Y-131.31
X95.98Y-128.77
X95.98Y-131.31
X98.52Y-128.77
X98.52Y-131.31
X100.085Y-61.21
X100.085Y-63.75
X100.085Y-66.29
X100.085Y-68.83
X100.085Y-71.37
X100.085Y-73.91
X100.085Y-76.45
X100.085Y-78.99
X100.085Y-81.53
X100.085Y-84.07
X100.085Y-86.61
X100.085Y-89.15
X100.085Y-91.69
X100.085Y-94.23
X100.085Y-96.77
X100.085Y-99.31
X100.085Y-101.85
X100.085Y-104.39
X100.085Y-106.93
X100.085Y-109.47
X101.06Y-128.77
X101.06Y-131.31
X102.625Y-61.21
X102.625Y-63.75
X102.625Y-66.29
X102.625Y-68.83
X102.625Y-71.37
X102.625Y-73.91
X102.625Y-76.45
X102.625Y-78.99
X102.625Y-81.53
X102.625Y-84.07
X102.625Y-86.61
X102.625Y-89.15
X102.625Y-91.69
X102.625Y-94.23
X102.625Y-96.77
X102.625Y-99.31
X102.625Y-101.85
X102.625Y-104.39
X102.625Y-106.93
X102.625Y-109.47
X103.6Y-128.77
X103.6Y-131.31
X106.14Y-128.77
X106.14Y-131.31
X108.68Y-128.77
X108.68Y-131.31
X111.22Y-128.77
X111.22Y-131.31
X113.76Y-128.77
X113.76Y-131.31
X116.3Y-128.77
X116.3Y-131.31
X118.84Y-128.77
X118.84Y-131.31
X121.38Y-128.77
X121.38Y-131.31
X123.285Y-61.21
X123.285Y-63.75
X123.285Y-66.29
X123.285Y-68.83
X123.285Y-71.37
X123.285Y-73.91
X123.285Y-76.45
X123.285Y-78.99
X123.285Y-81.53
X123.285Y-84.07
X123.285Y-86.61
X123.285Y-89.15
X123.285Y-91.69
X123.285Y-94.23
X123.285Y-96.77
X123.285Y-99.31
X123.285Y-101.85
X123.285Y-104.39
X123.285Y-106.93
X123.285Y-109.47
X123.92Y-128.77
X123.92Y-131.31
X125.825Y-61.21
X125.825Y-63.75
X125.825Y-66.29
X125.825Y-68.83
X125.825Y-71.37
X125.825Y-73.91
X125.825Y-76.45
X125.825Y-78.99
X125.825Y-81.53
X125.825Y-84.07
X125.825Y-86.61
X125.825Y-89.15
X125.825Y-91.69
X125.825Y-94.23
X125.825Y-96.77
X125.825Y-99.31
X125.825Y-101.85
X125.825Y-104.39
X125.825Y-106.93
X125.825Y-109.47
X126.46Y-128.77
X126.46Y-131.31
X129.0Y-128.77
X129.0Y-131.31
X131.54Y-128.77
X131.54Y-131.31
X134.08Y-128.77
X134.08Y-131.31
X136.62Y-128.77
X136.62Y-131.31
X139.16Y-128.77
X139.16Y-131.31
X141.7Y-128.77
X141.7Y-131.31
X144.24Y-128.77
X144.24Y-131.31
M30
