%TF.GenerationSoftware,KiCad,Pcbnew,10.0.1*%
%TF.CreationDate,2026-10-04T14:25:46+01:00*%
%TF.ProjectId,ver1,76657231-2e6b-4696-9361-645f70636258,rev?*%
%TF.SameCoordinates,Original*%
%TF.FileFunction,Copper,L1,Top*%
%TF.FilePolarity,Positive*%
%FSLAX46Y46*%
G04 Gerber Fmt 4.6, Leading zero omitted, Abs format (unit mm)*
G04 Created by KiCad (PCBNEW 10.0.1) date 2026-10-04 14:25:46*
%MOMM*%
%LPD*%
G01*
G04 APERTURE LIST*
G04 Aperture macros list*
%AMRoundRect*
0 Rectangle with rounded corners*
0 $1 Rounding radius*
0 $2 $3 $4 $5 $6 $7 $8 $9 X,Y pos of 4 corners*
0 Add a 4 corners polygon primitive as box body*
4,1,4,$2,$3,$4,$5,$6,$7,$8,$9,$2,$3,0*
0 Add four circle primitives for the rounded corners*
1,1,$1+$1,$2,$3*
1,1,$1+$1,$4,$5*
1,1,$1+$1,$6,$7*
1,1,$1+$1,$8,$9*
0 Add four rect primitives between the rounded corners*
20,1,$1+$1,$2,$3,$4,$5,0*
20,1,$1+$1,$4,$5,$6,$7,0*
20,1,$1+$1,$6,$7,$8,$9,0*
20,1,$1+$1,$8,$9,$2,$3,0*%
G04 Aperture macros list end*
%TA.AperFunction,ComponentPad*%
%ADD10C,1.700000*%
%TD*%
%TA.AperFunction,ComponentPad*%
%ADD11RoundRect,0.250000X-0.600000X0.600000X-0.600000X-0.600000X0.600000X-0.600000X0.600000X0.600000X0*%
%TD*%
%TA.AperFunction,ComponentPad*%
%ADD12R,1.700000X1.700000*%
%TD*%
%TA.AperFunction,ViaPad*%
%ADD13C,0.600000*%
%TD*%
%TA.AperFunction,Conductor*%
%ADD14C,0.200000*%
%TD*%
G04 APERTURE END LIST*
D10*
%TO.P,XB80,a1,Pin_a1_a1*%
%TO.N,/A1*%
X83280000Y-128770000D03*
%TO.P,XB80,a2,Pin_a2_a2*%
%TO.N,/A2*%
X85820000Y-128770000D03*
%TO.P,XB80,a3,Pin_a3_a3*%
%TO.N,/A3*%
X88360000Y-128770000D03*
%TO.P,XB80,a4,Pin_a4_a4*%
%TO.N,/A4*%
X90900000Y-128770000D03*
%TO.P,XB80,a5,Pin_a5_a5*%
%TO.N,/A5*%
X93440000Y-128770000D03*
%TO.P,XB80,a6,Pin_a6_a6*%
%TO.N,/A6*%
X95980000Y-128770000D03*
%TO.P,XB80,a7,Pin_a7_a7*%
%TO.N,/A7*%
X98520000Y-128770000D03*
%TO.P,XB80,a8,Pin_a8_a8*%
%TO.N,/A8*%
X101060000Y-128770000D03*
%TO.P,XB80,a9,Pin_a9_a9*%
%TO.N,/A9*%
X103600000Y-128770000D03*
%TO.P,XB80,a10,Pin_a10_a10*%
%TO.N,/A10*%
X106140000Y-128770000D03*
%TO.P,XB80,a11,Pin_a11_a11*%
%TO.N,/A11*%
X108680000Y-128770000D03*
%TO.P,XB80,a12,Pin_a12_a12*%
%TO.N,/A12*%
X111220000Y-128770000D03*
%TO.P,XB80,a13,Pin_a13_a13*%
%TO.N,/A13*%
X113760000Y-128770000D03*
%TO.P,XB80,a14,Pin_a14_a14*%
%TO.N,/A14*%
X116300000Y-128770000D03*
%TO.P,XB80,a15,Pin_a15_a15*%
%TO.N,/A15*%
X118840000Y-128770000D03*
%TO.P,XB80,a16,Pin_a16_a16*%
%TO.N,/A16*%
X121380000Y-128770000D03*
%TO.P,XB80,a17,Pin_a17_a17*%
%TO.N,GND*%
X123920000Y-128770000D03*
%TO.P,XB80,a18,Pin_a18_a18*%
%TO.N,/D7*%
X126460000Y-128770000D03*
%TO.P,XB80,a19,Pin_a19_a19*%
%TO.N,/D6*%
X129000000Y-128770000D03*
%TO.P,XB80,a20,Pin_a20_a20*%
%TO.N,/D5*%
X131540000Y-128770000D03*
%TO.P,XB80,a21,Pin_a21_a21*%
%TO.N,/D4*%
X134080000Y-128770000D03*
%TO.P,XB80,a22,Pin_a22_a22*%
%TO.N,/D3*%
X136620000Y-128770000D03*
%TO.P,XB80,a23,Pin_a23_a23*%
%TO.N,/D2*%
X139160000Y-128770000D03*
%TO.P,XB80,a24,Pin_a24_a24*%
%TO.N,/D1*%
X141700000Y-128770000D03*
D11*
%TO.P,XB80,a25,Pin_a25_a25*%
%TO.N,/D0*%
X144240000Y-128770000D03*
D10*
%TO.P,XB80,b1,Pin_b1_b1*%
%TO.N,GND*%
X83280000Y-131310000D03*
%TO.P,XB80,b2,Pin_b2_b2*%
%TO.N,unconnected-(XB80-Pin_b2-Padb2)*%
X85820000Y-131310000D03*
%TO.P,XB80,b3,Pin_b3_b3*%
%TO.N,GND*%
X88360000Y-131310000D03*
%TO.P,XB80,b4,Pin_b4_b4*%
%TO.N,/~{MREQ}*%
X90900000Y-131310000D03*
%TO.P,XB80,b5,Pin_b5_b5*%
%TO.N,GND*%
X93440000Y-131310000D03*
%TO.P,XB80,b6,Pin_b6_b6*%
%TO.N,/~{IOREQ}*%
X95980000Y-131310000D03*
%TO.P,XB80,b7,Pin_b7_b7*%
%TO.N,GND*%
X98520000Y-131310000D03*
%TO.P,XB80,b8,Pin_b8_b8*%
%TO.N,/~{RD}*%
X101060000Y-131310000D03*
%TO.P,XB80,b9,Pin_b9_b9*%
%TO.N,GND*%
X103600000Y-131310000D03*
%TO.P,XB80,b10,Pin_b10_b10*%
%TO.N,/~{WR}*%
X106140000Y-131310000D03*
%TO.P,XB80,b11,Pin_b11_b11*%
%TO.N,GND*%
X108680000Y-131310000D03*
%TO.P,XB80,b12,Pin_b12_b12*%
%TO.N,unconnected-(XB80-Pin_b12-Padb12)*%
X111220000Y-131310000D03*
%TO.P,XB80,b13,Pin_b13_b13*%
%TO.N,GND*%
X113760000Y-131310000D03*
%TO.P,XB80,b14,Pin_b14_b14*%
%TO.N,unconnected-(XB80-Pin_b14-Padb14)*%
X116300000Y-131310000D03*
%TO.P,XB80,b15,Pin_b15_b15*%
%TO.N,GND*%
X118840000Y-131310000D03*
%TO.P,XB80,b16,Pin_b16_b16*%
%TO.N,unconnected-(XB80-Pin_b16-Padb16)*%
X121380000Y-131310000D03*
%TO.P,XB80,b17,Pin_b17_b17*%
%TO.N,GND*%
X123920000Y-131310000D03*
%TO.P,XB80,b18,Pin_b18_b18*%
X126460000Y-131310000D03*
%TO.P,XB80,b19,Pin_b19_b19*%
X129000000Y-131310000D03*
%TO.P,XB80,b20,Pin_b20_b20*%
X131540000Y-131310000D03*
%TO.P,XB80,b21,Pin_b21_b21*%
X134080000Y-131310000D03*
%TO.P,XB80,b22,Pin_b22_b22*%
X136620000Y-131310000D03*
%TO.P,XB80,b23,Pin_b23_b23*%
X139160000Y-131310000D03*
%TO.P,XB80,b24,Pin_b24_b24*%
X141700000Y-131310000D03*
%TO.P,XB80,b25,Pin_b25_b25*%
X144240000Y-131310000D03*
%TD*%
D12*
%TO.P,EXT1,1,Pin_1_1*%
%TO.N,unconnected-(EXT1-Pin_1-Pad1)*%
X102625200Y-61210000D03*
D10*
%TO.P,EXT1,2,Pin_2_2*%
%TO.N,unconnected-(EXT1-Pin_2-Pad2)*%
X100085200Y-61210000D03*
%TO.P,EXT1,3,Pin_3_3*%
%TO.N,/D0*%
X102625200Y-63750000D03*
%TO.P,EXT1,4,Pin_4_4*%
%TO.N,unconnected-(EXT1-Pin_4-Pad4)*%
X100085200Y-63750000D03*
%TO.P,EXT1,5,Pin_5_5*%
%TO.N,/D1*%
X102625200Y-66290000D03*
%TO.P,EXT1,6,Pin_6_6*%
%TO.N,unconnected-(EXT1-Pin_6-Pad6)*%
X100085200Y-66290000D03*
%TO.P,EXT1,7,Pin_7_7*%
%TO.N,/D2*%
X102625200Y-68830000D03*
%TO.P,EXT1,8,Pin_8_8*%
%TO.N,unconnected-(EXT1-Pin_8-Pad8)*%
X100085200Y-68830000D03*
%TO.P,EXT1,9,Pin_9_9*%
%TO.N,/D3*%
X102625200Y-71370000D03*
%TO.P,EXT1,10,Pin_10_10*%
%TO.N,unconnected-(EXT1-Pin_10-Pad10)*%
X100085200Y-71370000D03*
%TO.P,EXT1,11,Pin_11_11*%
%TO.N,/D4*%
X102625200Y-73910000D03*
%TO.P,EXT1,12,Pin_12_12*%
%TO.N,unconnected-(EXT1-Pin_12-Pad12)*%
X100085200Y-73910000D03*
%TO.P,EXT1,13,Pin_13_13*%
%TO.N,/D5*%
X102625200Y-76450000D03*
%TO.P,EXT1,14,Pin_14_14*%
%TO.N,unconnected-(EXT1-Pin_14-Pad14)*%
X100085200Y-76450000D03*
%TO.P,EXT1,15,Pin_15_15*%
%TO.N,/D6*%
X102625200Y-78990000D03*
%TO.P,EXT1,16,Pin_16_16*%
%TO.N,unconnected-(EXT1-Pin_16-Pad16)*%
X100085200Y-78990000D03*
%TO.P,EXT1,17,Pin_17_17*%
%TO.N,/D7*%
X102625200Y-81530000D03*
%TO.P,EXT1,18,Pin_18_18*%
%TO.N,unconnected-(EXT1-Pin_18-Pad18)*%
X100085200Y-81530000D03*
%TO.P,EXT1,19,Pin_19_19*%
%TO.N,unconnected-(EXT1-Pin_19-Pad19)*%
X102625200Y-84070000D03*
%TO.P,EXT1,20,Pin_20_20*%
%TO.N,unconnected-(EXT1-Pin_20-Pad20)*%
X100085200Y-84070000D03*
%TO.P,EXT1,21,Pin_21_21*%
%TO.N,unconnected-(EXT1-Pin_21-Pad21)*%
X102625200Y-86610000D03*
%TO.P,EXT1,22,Pin_22_22*%
%TO.N,unconnected-(EXT1-Pin_22-Pad22)*%
X100085200Y-86610000D03*
%TO.P,EXT1,23,Pin_23_23*%
%TO.N,unconnected-(EXT1-Pin_23-Pad23)*%
X102625200Y-89150000D03*
%TO.P,EXT1,24,Pin_24_24*%
%TO.N,unconnected-(EXT1-Pin_24-Pad24)*%
X100085200Y-89150000D03*
%TO.P,EXT1,25,Pin_25_25*%
%TO.N,unconnected-(EXT1-Pin_25-Pad25)*%
X102625200Y-91690000D03*
%TO.P,EXT1,26,Pin_26_26*%
%TO.N,unconnected-(EXT1-Pin_26-Pad26)*%
X100085200Y-91690000D03*
%TO.P,EXT1,27,Pin_27_27*%
%TO.N,unconnected-(EXT1-Pin_27-Pad27)*%
X102625200Y-94230000D03*
%TO.P,EXT1,28,Pin_28_28*%
%TO.N,unconnected-(EXT1-Pin_28-Pad28)*%
X100085200Y-94230000D03*
%TO.P,EXT1,29,Pin_29_29*%
%TO.N,unconnected-(EXT1-Pin_29-Pad29)*%
X102625200Y-96770000D03*
%TO.P,EXT1,30,Pin_30_30*%
%TO.N,unconnected-(EXT1-Pin_30-Pad30)*%
X100085200Y-96770000D03*
%TO.P,EXT1,31,Pin_31_31*%
%TO.N,/~{WR}*%
X102625200Y-99310000D03*
%TO.P,EXT1,32,Pin_32_32*%
%TO.N,unconnected-(EXT1-Pin_32-Pad32)*%
X100085200Y-99310000D03*
%TO.P,EXT1,33,Pin_33_33*%
%TO.N,/~{RD}*%
X102625200Y-101850000D03*
%TO.P,EXT1,34,Pin_34_34*%
%TO.N,unconnected-(EXT1-Pin_34-Pad34)*%
X100085200Y-101850000D03*
%TO.P,EXT1,35,Pin_35_35*%
%TO.N,/~{IOREQ}*%
X102625200Y-104390000D03*
%TO.P,EXT1,36,Pin_36_36*%
%TO.N,unconnected-(EXT1-Pin_36-Pad36)*%
X100085200Y-104390000D03*
%TO.P,EXT1,37,Pin_37_37*%
%TO.N,/~{MREQ}*%
X102625200Y-106930000D03*
%TO.P,EXT1,38,Pin_38_38*%
%TO.N,unconnected-(EXT1-Pin_38-Pad38)*%
X100085200Y-106930000D03*
%TO.P,EXT1,39,Pin_39_39*%
%TO.N,GND*%
X102625200Y-109470000D03*
%TO.P,EXT1,40,Pin_40_40*%
%TO.N,unconnected-(EXT1-Pin_40-Pad40)*%
X100085200Y-109470000D03*
%TD*%
D12*
%TO.P,EXT2,1,Pin_1_1*%
%TO.N,unconnected-(EXT2-Pin_1-Pad1)*%
X126125200Y-61210000D03*
D10*
%TO.P,EXT2,2,Pin_2_2*%
%TO.N,unconnected-(EXT2-Pin_2-Pad2)*%
X123585200Y-61210000D03*
%TO.P,EXT2,3,Pin_3_3*%
%TO.N,/A16*%
X126125200Y-63750000D03*
%TO.P,EXT2,4,Pin_4_4*%
%TO.N,unconnected-(EXT2-Pin_4-Pad4)*%
X123585200Y-63750000D03*
%TO.P,EXT2,5,Pin_5_5*%
%TO.N,/A15*%
X126125200Y-66290000D03*
%TO.P,EXT2,6,Pin_6_6*%
%TO.N,unconnected-(EXT2-Pin_6-Pad6)*%
X123585200Y-66290000D03*
%TO.P,EXT2,7,Pin_7_7*%
%TO.N,/A14*%
X126125200Y-68830000D03*
%TO.P,EXT2,8,Pin_8_8*%
%TO.N,unconnected-(EXT2-Pin_8-Pad8)*%
X123585200Y-68830000D03*
%TO.P,EXT2,9,Pin_9_9*%
%TO.N,/A13*%
X126125200Y-71370000D03*
%TO.P,EXT2,10,Pin_10_10*%
%TO.N,unconnected-(EXT2-Pin_10-Pad10)*%
X123585200Y-71370000D03*
%TO.P,EXT2,11,Pin_11_11*%
%TO.N,/A12*%
X126125200Y-73910000D03*
%TO.P,EXT2,12,Pin_12_12*%
%TO.N,unconnected-(EXT2-Pin_12-Pad12)*%
X123585200Y-73910000D03*
%TO.P,EXT2,13,Pin_13_13*%
%TO.N,/A11*%
X126125200Y-76450000D03*
%TO.P,EXT2,14,Pin_14_14*%
%TO.N,unconnected-(EXT2-Pin_14-Pad14)*%
X123585200Y-76450000D03*
%TO.P,EXT2,15,Pin_15_15*%
%TO.N,/A10*%
X126125200Y-78990000D03*
%TO.P,EXT2,16,Pin_16_16*%
%TO.N,unconnected-(EXT2-Pin_16-Pad16)*%
X123585200Y-78990000D03*
%TO.P,EXT2,17,Pin_17_17*%
%TO.N,/A9*%
X126125200Y-81530000D03*
%TO.P,EXT2,18,Pin_18_18*%
%TO.N,unconnected-(EXT2-Pin_18-Pad18)*%
X123585200Y-81530000D03*
%TO.P,EXT2,19,Pin_19_19*%
%TO.N,unconnected-(EXT2-Pin_19-Pad19)*%
X126125200Y-84070000D03*
%TO.P,EXT2,20,Pin_20_20*%
%TO.N,unconnected-(EXT2-Pin_20-Pad20)*%
X123585200Y-84070000D03*
%TO.P,EXT2,21,Pin_21_21*%
%TO.N,unconnected-(EXT2-Pin_21-Pad21)*%
X126125200Y-86610000D03*
%TO.P,EXT2,22,Pin_22_22*%
%TO.N,unconnected-(EXT2-Pin_22-Pad22)*%
X123585200Y-86610000D03*
%TO.P,EXT2,23,Pin_23_23*%
%TO.N,/A8*%
X126125200Y-89150000D03*
%TO.P,EXT2,24,Pin_24_24*%
%TO.N,unconnected-(EXT2-Pin_24-Pad24)*%
X123585200Y-89150000D03*
%TO.P,EXT2,25,Pin_25_25*%
%TO.N,/A7*%
X126125200Y-91690000D03*
%TO.P,EXT2,26,Pin_26_26*%
%TO.N,unconnected-(EXT2-Pin_26-Pad26)*%
X123585200Y-91690000D03*
%TO.P,EXT2,27,Pin_27_27*%
%TO.N,/A6*%
X126125200Y-94230000D03*
%TO.P,EXT2,28,Pin_28_28*%
%TO.N,unconnected-(EXT2-Pin_28-Pad28)*%
X123585200Y-94230000D03*
%TO.P,EXT2,29,Pin_29_29*%
%TO.N,/A5*%
X126125200Y-96770000D03*
%TO.P,EXT2,30,Pin_30_30*%
%TO.N,unconnected-(EXT2-Pin_30-Pad30)*%
X123585200Y-96770000D03*
%TO.P,EXT2,31,Pin_31_31*%
%TO.N,/A4*%
X126125200Y-99310000D03*
%TO.P,EXT2,32,Pin_32_32*%
%TO.N,unconnected-(EXT2-Pin_32-Pad32)*%
X123585200Y-99310000D03*
%TO.P,EXT2,33,Pin_33_33*%
%TO.N,/A3*%
X126125200Y-101850000D03*
%TO.P,EXT2,34,Pin_34_34*%
%TO.N,unconnected-(EXT2-Pin_34-Pad34)*%
X123585200Y-101850000D03*
%TO.P,EXT2,35,Pin_35_35*%
%TO.N,/A2*%
X126125200Y-104390000D03*
%TO.P,EXT2,36,Pin_36_36*%
%TO.N,unconnected-(EXT2-Pin_36-Pad36)*%
X123585200Y-104390000D03*
%TO.P,EXT2,37,Pin_37_37*%
%TO.N,/A1*%
X126125200Y-106930000D03*
%TO.P,EXT2,38,Pin_38_38*%
%TO.N,unconnected-(EXT2-Pin_38-Pad38)*%
X123585200Y-106930000D03*
%TO.P,EXT2,39,Pin_39_39*%
%TO.N,unconnected-(EXT2-Pin_39-Pad39)*%
X126125200Y-109470000D03*
%TO.P,EXT2,40,Pin_40_40*%
%TO.N,unconnected-(EXT2-Pin_40-Pad40)*%
X123585200Y-109470000D03*
%TD*%
D13*
%TO.N,/A5*%
X104535000Y-127723500D03*
%TO.N,GND*%
X104540300Y-112402400D03*
%TO.N,/D7*%
X131935600Y-98040000D03*
%TO.N,/D6*%
X132224600Y-90420000D03*
%TO.N,/D5*%
X132939000Y-87956100D03*
%TO.N,/D4*%
X134080000Y-82800000D03*
%TO.N,/D3*%
X136620000Y-77720000D03*
%TO.N,/D2*%
X135018700Y-72641100D03*
%TO.N,/~{MREQ}*%
X92170000Y-105751500D03*
%TO.N,/~{RD}*%
X111128000Y-107924500D03*
%TD*%
%TO.N,/A1*%
D14*
X124855200Y-108200000D02*
X126125200Y-106930000D01*
X99677600Y-108200000D02*
X110552700Y-108200000D01*
X110552700Y-108200000D02*
X110878900Y-108526200D01*
X111377200Y-108526200D02*
X111703400Y-108200000D01*
X83280000Y-124597600D02*
X99677600Y-108200000D01*
X83280000Y-128770000D02*
X83280000Y-124597600D01*
X110878900Y-108526200D02*
X111377200Y-108526200D01*
X111703400Y-108200000D02*
X124855200Y-108200000D01*
%TO.N,/A2*%
X126125200Y-104390000D02*
X127310100Y-105574900D01*
X111007900Y-126249900D02*
X88340100Y-126249900D01*
X127310100Y-109947700D02*
X111007900Y-126249900D01*
X127310100Y-105574900D02*
X127310100Y-109947700D01*
X88340100Y-126249900D02*
X85820000Y-128770000D01*
%TO.N,/A3*%
X110811100Y-127053300D02*
X105283700Y-127053300D01*
X127725300Y-103450100D02*
X127725300Y-110139100D01*
X126125200Y-101850000D02*
X127725300Y-103450100D01*
X127725300Y-110139100D02*
X110811100Y-127053300D01*
X105283700Y-127053300D02*
X104932200Y-126701800D01*
X90428200Y-126701800D02*
X88360000Y-128770000D01*
X104932200Y-126701800D02*
X90428200Y-126701800D01*
%TO.N,/A4*%
X128127000Y-110305400D02*
X110977400Y-127455000D01*
X105117400Y-127455000D02*
X104784200Y-127121800D01*
X126125200Y-99310000D02*
X128127000Y-101311800D01*
X110977400Y-127455000D02*
X105117400Y-127455000D01*
X128127000Y-101311800D02*
X128127000Y-110305400D01*
X104784200Y-127121800D02*
X92548200Y-127121800D01*
X92548200Y-127121800D02*
X90900000Y-128770000D01*
%TO.N,/A5*%
X93440000Y-128770000D02*
X94604900Y-127605100D01*
X94604900Y-127605100D02*
X104416600Y-127605100D01*
X104416600Y-127605100D02*
X104535000Y-127723500D01*
%TO.N,GND*%
X108680000Y-130119400D02*
X113760000Y-130119400D01*
X98520000Y-130119400D02*
X103600000Y-130119400D01*
X84470600Y-130119400D02*
X88360000Y-130119400D01*
X93440000Y-130119400D02*
X93440000Y-131310000D01*
X98520000Y-130119400D02*
X98520000Y-131310000D01*
X131540000Y-131310000D02*
X134080000Y-131310000D01*
X83280000Y-131310000D02*
X84470600Y-130119400D01*
X108680000Y-130119400D02*
X108680000Y-131310000D01*
X139160000Y-131310000D02*
X141700000Y-131310000D01*
X102625200Y-109470000D02*
X102625200Y-110487300D01*
X122729400Y-130119400D02*
X123920000Y-131310000D01*
X129000000Y-131310000D02*
X131540000Y-131310000D01*
X102625200Y-110487300D02*
X104540300Y-112402400D01*
X103600000Y-130119400D02*
X103600000Y-131310000D01*
X141700000Y-131310000D02*
X144240000Y-131310000D01*
X123920000Y-131310000D02*
X126460000Y-131310000D01*
X113760000Y-130119400D02*
X118840000Y-130119400D01*
X118840000Y-130119400D02*
X118840000Y-131310000D01*
X136620000Y-131310000D02*
X139160000Y-131310000D01*
X88360000Y-130119400D02*
X88360000Y-131310000D01*
X103600000Y-130119400D02*
X108680000Y-130119400D01*
X126460000Y-131310000D02*
X129000000Y-131310000D01*
X134080000Y-131310000D02*
X136620000Y-131310000D01*
X93440000Y-130119400D02*
X98520000Y-130119400D01*
X88360000Y-130119400D02*
X93440000Y-130119400D01*
X118840000Y-130119400D02*
X122729400Y-130119400D01*
X113760000Y-130119400D02*
X113760000Y-131310000D01*
%TO.N,/D7*%
X116595200Y-95500000D02*
X124003600Y-95500000D01*
X102625200Y-81530000D02*
X116595200Y-95500000D01*
X124855200Y-97188400D02*
X125706800Y-98040000D01*
X124855200Y-96351600D02*
X124855200Y-97188400D01*
X124003600Y-95500000D02*
X124855200Y-96351600D01*
X125706800Y-98040000D02*
X131935600Y-98040000D01*
%TO.N,/D6*%
X114055200Y-90420000D02*
X132224600Y-90420000D01*
X102625200Y-78990000D02*
X114055200Y-90420000D01*
%TO.N,/D5*%
X102625200Y-76450000D02*
X114131300Y-87956100D01*
X114131300Y-87956100D02*
X132939000Y-87956100D01*
%TO.N,/D4*%
X102625200Y-73910000D02*
X111515200Y-82800000D01*
X111515200Y-82800000D02*
X134080000Y-82800000D01*
%TO.N,/D3*%
X108975200Y-77720000D02*
X136620000Y-77720000D01*
X102625200Y-71370000D02*
X108975200Y-77720000D01*
%TO.N,/D2*%
X102625200Y-68830000D02*
X106436300Y-72641100D01*
X106436300Y-72641100D02*
X135018700Y-72641100D01*
%TO.N,/~{MREQ}*%
X101446700Y-105751500D02*
X92170000Y-105751500D01*
X102625200Y-106930000D02*
X101446700Y-105751500D01*
%TO.N,/~{RD}*%
X105053500Y-101850000D02*
X111128000Y-107924500D01*
X102625200Y-101850000D02*
X105053500Y-101850000D01*
%TD*%
M02*
