%TF.GenerationSoftware,KiCad,Pcbnew,10.0.1*%
%TF.CreationDate,2026-10-05T11:04:35+01:00*%
%TF.ProjectId,ver1,76657231-2e6b-4696-9361-645f70636258,rev?*%
%TF.SameCoordinates,Original*%
%TF.FileFunction,Copper,L2,Bot*%
%TF.FilePolarity,Positive*%
%FSLAX46Y46*%
G04 Gerber Fmt 4.6, Leading zero omitted, Abs format (unit mm)*
G04 Created by KiCad (PCBNEW 10.0.1) date 2026-10-05 11:04:35*
%MOMM*%
%LPD*%
G01*
G04 APERTURE LIST*
G04 Aperture macros list*
%AMRoundRect*
0 Rectangle with rounded corners*
0 $1 Rounding radius*
0 $2 $3 $4 $5 $6 $7 $8 $9 X,Y pos of 4 corners*
0 Add a 4 corners polygon primitive as box body*
4,1,4,$2,$3,$4,$5,$6,$7,$8,$9,$2,$3,0*
0 Add four circle primitives for the rounded corners*
1,1,$1+$1,$2,$3*
1,1,$1+$1,$4,$5*
1,1,$1+$1,$6,$7*
1,1,$1+$1,$8,$9*
0 Add four rect primitives between the rounded corners*
20,1,$1+$1,$2,$3,$4,$5,0*
20,1,$1+$1,$4,$5,$6,$7,0*
20,1,$1+$1,$6,$7,$8,$9,0*
20,1,$1+$1,$8,$9,$2,$3,0*%
G04 Aperture macros list end*
%TA.AperFunction,ComponentPad*%
%ADD10C,1.700000*%
%TD*%
%TA.AperFunction,ComponentPad*%
%ADD11RoundRect,0.250000X-0.600000X0.600000X-0.600000X-0.600000X0.600000X-0.600000X0.600000X0.600000X0*%
%TD*%
%TA.AperFunction,ComponentPad*%
%ADD12R,1.700000X1.700000*%
%TD*%
%TA.AperFunction,ViaPad*%
%ADD13C,0.600000*%
%TD*%
%TA.AperFunction,Conductor*%
%ADD14C,0.200000*%
%TD*%
G04 APERTURE END LIST*
D10*
%TO.P,XB80,a1,Pin_a1_a1*%
%TO.N,/A15*%
X83280000Y-128770000D03*
%TO.P,XB80,a2,Pin_a2_a2*%
%TO.N,/A14*%
X85820000Y-128770000D03*
%TO.P,XB80,a3,Pin_a3_a3*%
%TO.N,/A13*%
X88360000Y-128770000D03*
%TO.P,XB80,a4,Pin_a4_a4*%
%TO.N,/A12*%
X90900000Y-128770000D03*
%TO.P,XB80,a5,Pin_a5_a5*%
%TO.N,/A11*%
X93440000Y-128770000D03*
%TO.P,XB80,a6,Pin_a6_a6*%
%TO.N,/A10*%
X95980000Y-128770000D03*
%TO.P,XB80,a7,Pin_a7_a7*%
%TO.N,/A9*%
X98520000Y-128770000D03*
%TO.P,XB80,a8,Pin_a8_a8*%
%TO.N,/A8*%
X101060000Y-128770000D03*
%TO.P,XB80,a9,Pin_a9_a9*%
%TO.N,/A7*%
X103600000Y-128770000D03*
%TO.P,XB80,a10,Pin_a10_a10*%
%TO.N,/A6*%
X106140000Y-128770000D03*
%TO.P,XB80,a11,Pin_a11_a11*%
%TO.N,/A5*%
X108680000Y-128770000D03*
%TO.P,XB80,a12,Pin_a12_a12*%
%TO.N,/A4*%
X111220000Y-128770000D03*
%TO.P,XB80,a13,Pin_a13_a13*%
%TO.N,/A3*%
X113760000Y-128770000D03*
%TO.P,XB80,a14,Pin_a14_a14*%
%TO.N,/A2*%
X116300000Y-128770000D03*
%TO.P,XB80,a15,Pin_a15_a15*%
%TO.N,/A1*%
X118840000Y-128770000D03*
%TO.P,XB80,a16,Pin_a16_a16*%
%TO.N,/A0*%
X121380000Y-128770000D03*
%TO.P,XB80,a17,Pin_a17_a17*%
%TO.N,GND*%
X123920000Y-128770000D03*
%TO.P,XB80,a18,Pin_a18_a18*%
%TO.N,/D7*%
X126460000Y-128770000D03*
%TO.P,XB80,a19,Pin_a19_a19*%
%TO.N,/D6*%
X129000000Y-128770000D03*
%TO.P,XB80,a20,Pin_a20_a20*%
%TO.N,/D5*%
X131540000Y-128770000D03*
%TO.P,XB80,a21,Pin_a21_a21*%
%TO.N,/D4*%
X134080000Y-128770000D03*
%TO.P,XB80,a22,Pin_a22_a22*%
%TO.N,/D3*%
X136620000Y-128770000D03*
%TO.P,XB80,a23,Pin_a23_a23*%
%TO.N,/D2*%
X139160000Y-128770000D03*
%TO.P,XB80,a24,Pin_a24_a24*%
%TO.N,/D1*%
X141700000Y-128770000D03*
D11*
%TO.P,XB80,a25,Pin_a25_a25*%
%TO.N,/D0*%
X144240000Y-128770000D03*
D10*
%TO.P,XB80,b1,Pin_b1_b1*%
%TO.N,GND*%
X83280000Y-131310000D03*
%TO.P,XB80,b2,Pin_b2_b2*%
%TO.N,/~{INT}*%
X85820000Y-131310000D03*
%TO.P,XB80,b3,Pin_b3_b3*%
%TO.N,GND*%
X88360000Y-131310000D03*
%TO.P,XB80,b4,Pin_b4_b4*%
%TO.N,/~{MREQ}*%
X90900000Y-131310000D03*
%TO.P,XB80,b5,Pin_b5_b5*%
%TO.N,GND*%
X93440000Y-131310000D03*
%TO.P,XB80,b6,Pin_b6_b6*%
%TO.N,/~{IOREQ}*%
X95980000Y-131310000D03*
%TO.P,XB80,b7,Pin_b7_b7*%
%TO.N,GND*%
X98520000Y-131310000D03*
%TO.P,XB80,b8,Pin_b8_b8*%
%TO.N,/~{RD}*%
X101060000Y-131310000D03*
%TO.P,XB80,b9,Pin_b9_b9*%
%TO.N,GND*%
X103600000Y-131310000D03*
%TO.P,XB80,b10,Pin_b10_b10*%
%TO.N,/~{WR}*%
X106140000Y-131310000D03*
%TO.P,XB80,b11,Pin_b11_b11*%
%TO.N,GND*%
X108680000Y-131310000D03*
%TO.P,XB80,b12,Pin_b12_b12*%
%TO.N,/~{M1}*%
X111220000Y-131310000D03*
%TO.P,XB80,b13,Pin_b13_b13*%
%TO.N,GND*%
X113760000Y-131310000D03*
%TO.P,XB80,b14,Pin_b14_b14*%
%TO.N,/~{HALT}*%
X116300000Y-131310000D03*
%TO.P,XB80,b15,Pin_b15_b15*%
%TO.N,GND*%
X118840000Y-131310000D03*
%TO.P,XB80,b16,Pin_b16_b16*%
%TO.N,/RESET*%
X121380000Y-131310000D03*
%TO.P,XB80,b17,Pin_b17_b17*%
%TO.N,GND*%
X123920000Y-131310000D03*
%TO.P,XB80,b18,Pin_b18_b18*%
X126460000Y-131310000D03*
%TO.P,XB80,b19,Pin_b19_b19*%
X129000000Y-131310000D03*
%TO.P,XB80,b20,Pin_b20_b20*%
X131540000Y-131310000D03*
%TO.P,XB80,b21,Pin_b21_b21*%
X134080000Y-131310000D03*
%TO.P,XB80,b22,Pin_b22_b22*%
X136620000Y-131310000D03*
%TO.P,XB80,b23,Pin_b23_b23*%
X139160000Y-131310000D03*
%TO.P,XB80,b24,Pin_b24_b24*%
X141700000Y-131310000D03*
%TO.P,XB80,b25,Pin_b25_b25*%
X144240000Y-131310000D03*
%TD*%
D12*
%TO.P,EXT1,1,Pin_1_1*%
%TO.N,unconnected-(EXT1-Pin_1-Pad1)*%
X102625200Y-61210000D03*
D10*
%TO.P,EXT1,2,Pin_2_2*%
%TO.N,unconnected-(EXT1-Pin_2-Pad2)*%
X100085200Y-61210000D03*
%TO.P,EXT1,3,Pin_3_3*%
%TO.N,/D0*%
X102625200Y-63750000D03*
%TO.P,EXT1,4,Pin_4_4*%
%TO.N,unconnected-(EXT1-Pin_4-Pad4)*%
X100085200Y-63750000D03*
%TO.P,EXT1,5,Pin_5_5*%
%TO.N,/D1*%
X102625200Y-66290000D03*
%TO.P,EXT1,6,Pin_6_6*%
%TO.N,unconnected-(EXT1-Pin_6-Pad6)*%
X100085200Y-66290000D03*
%TO.P,EXT1,7,Pin_7_7*%
%TO.N,/D2*%
X102625200Y-68830000D03*
%TO.P,EXT1,8,Pin_8_8*%
%TO.N,unconnected-(EXT1-Pin_8-Pad8)*%
X100085200Y-68830000D03*
%TO.P,EXT1,9,Pin_9_9*%
%TO.N,/D3*%
X102625200Y-71370000D03*
%TO.P,EXT1,10,Pin_10_10*%
%TO.N,unconnected-(EXT1-Pin_10-Pad10)*%
X100085200Y-71370000D03*
%TO.P,EXT1,11,Pin_11_11*%
%TO.N,/D4*%
X102625200Y-73910000D03*
%TO.P,EXT1,12,Pin_12_12*%
%TO.N,unconnected-(EXT1-Pin_12-Pad12)*%
X100085200Y-73910000D03*
%TO.P,EXT1,13,Pin_13_13*%
%TO.N,/D5*%
X102625200Y-76450000D03*
%TO.P,EXT1,14,Pin_14_14*%
%TO.N,unconnected-(EXT1-Pin_14-Pad14)*%
X100085200Y-76450000D03*
%TO.P,EXT1,15,Pin_15_15*%
%TO.N,/D6*%
X102625200Y-78990000D03*
%TO.P,EXT1,16,Pin_16_16*%
%TO.N,unconnected-(EXT1-Pin_16-Pad16)*%
X100085200Y-78990000D03*
%TO.P,EXT1,17,Pin_17_17*%
%TO.N,/D7*%
X102625200Y-81530000D03*
%TO.P,EXT1,18,Pin_18_18*%
%TO.N,unconnected-(EXT1-Pin_18-Pad18)*%
X100085200Y-81530000D03*
%TO.P,EXT1,19,Pin_19_19*%
%TO.N,unconnected-(EXT1-Pin_19-Pad19)*%
X102625200Y-84070000D03*
%TO.P,EXT1,20,Pin_20_20*%
%TO.N,unconnected-(EXT1-Pin_20-Pad20)*%
X100085200Y-84070000D03*
%TO.P,EXT1,21,Pin_21_21*%
%TO.N,unconnected-(EXT1-Pin_21-Pad21)*%
X102625200Y-86610000D03*
%TO.P,EXT1,22,Pin_22_22*%
%TO.N,unconnected-(EXT1-Pin_22-Pad22)*%
X100085200Y-86610000D03*
%TO.P,EXT1,23,Pin_23_23*%
%TO.N,unconnected-(EXT1-Pin_23-Pad23)*%
X102625200Y-89150000D03*
%TO.P,EXT1,24,Pin_24_24*%
%TO.N,unconnected-(EXT1-Pin_24-Pad24)*%
X100085200Y-89150000D03*
%TO.P,EXT1,25,Pin_25_25*%
%TO.N,unconnected-(EXT1-Pin_25-Pad25)*%
X102625200Y-91690000D03*
%TO.P,EXT1,26,Pin_26_26*%
%TO.N,unconnected-(EXT1-Pin_26-Pad26)*%
X100085200Y-91690000D03*
%TO.P,EXT1,27,Pin_27_27*%
%TO.N,unconnected-(EXT1-Pin_27-Pad27)*%
X102625200Y-94230000D03*
%TO.P,EXT1,28,Pin_28_28*%
%TO.N,unconnected-(EXT1-Pin_28-Pad28)*%
X100085200Y-94230000D03*
%TO.P,EXT1,29,Pin_29_29*%
%TO.N,unconnected-(EXT1-Pin_29-Pad29)*%
X102625200Y-96770000D03*
%TO.P,EXT1,30,Pin_30_30*%
%TO.N,unconnected-(EXT1-Pin_30-Pad30)*%
X100085200Y-96770000D03*
%TO.P,EXT1,31,Pin_31_31*%
%TO.N,/~{WR}*%
X102625200Y-99310000D03*
%TO.P,EXT1,32,Pin_32_32*%
%TO.N,unconnected-(EXT1-Pin_32-Pad32)*%
X100085200Y-99310000D03*
%TO.P,EXT1,33,Pin_33_33*%
%TO.N,/~{RD}*%
X102625200Y-101850000D03*
%TO.P,EXT1,34,Pin_34_34*%
%TO.N,unconnected-(EXT1-Pin_34-Pad34)*%
X100085200Y-101850000D03*
%TO.P,EXT1,35,Pin_35_35*%
%TO.N,/~{IOREQ}*%
X102625200Y-104390000D03*
%TO.P,EXT1,36,Pin_36_36*%
%TO.N,unconnected-(EXT1-Pin_36-Pad36)*%
X100085200Y-104390000D03*
%TO.P,EXT1,37,Pin_37_37*%
%TO.N,/~{MREQ}*%
X102625200Y-106930000D03*
%TO.P,EXT1,38,Pin_38_38*%
%TO.N,unconnected-(EXT1-Pin_38-Pad38)*%
X100085200Y-106930000D03*
%TO.P,EXT1,39,Pin_39_39*%
%TO.N,GND*%
X102625200Y-109470000D03*
%TO.P,EXT1,40,Pin_40_40*%
X100085200Y-109470000D03*
%TD*%
D12*
%TO.P,EXT2,1,Pin_1_1*%
%TO.N,unconnected-(EXT2-Pin_1-Pad1)*%
X125825200Y-61210000D03*
D10*
%TO.P,EXT2,2,Pin_2_2*%
%TO.N,unconnected-(EXT2-Pin_2-Pad2)*%
X123285200Y-61210000D03*
%TO.P,EXT2,3,Pin_3_3*%
%TO.N,/A0*%
X125825200Y-63750000D03*
%TO.P,EXT2,4,Pin_4_4*%
%TO.N,unconnected-(EXT2-Pin_4-Pad4)*%
X123285200Y-63750000D03*
%TO.P,EXT2,5,Pin_5_5*%
%TO.N,/A1*%
X125825200Y-66290000D03*
%TO.P,EXT2,6,Pin_6_6*%
%TO.N,unconnected-(EXT2-Pin_6-Pad6)*%
X123285200Y-66290000D03*
%TO.P,EXT2,7,Pin_7_7*%
%TO.N,/A2*%
X125825200Y-68830000D03*
%TO.P,EXT2,8,Pin_8_8*%
%TO.N,unconnected-(EXT2-Pin_8-Pad8)*%
X123285200Y-68830000D03*
%TO.P,EXT2,9,Pin_9_9*%
%TO.N,/A3*%
X125825200Y-71370000D03*
%TO.P,EXT2,10,Pin_10_10*%
%TO.N,unconnected-(EXT2-Pin_10-Pad10)*%
X123285200Y-71370000D03*
%TO.P,EXT2,11,Pin_11_11*%
%TO.N,/A4*%
X125825200Y-73910000D03*
%TO.P,EXT2,12,Pin_12_12*%
%TO.N,unconnected-(EXT2-Pin_12-Pad12)*%
X123285200Y-73910000D03*
%TO.P,EXT2,13,Pin_13_13*%
%TO.N,/A5*%
X125825200Y-76450000D03*
%TO.P,EXT2,14,Pin_14_14*%
%TO.N,unconnected-(EXT2-Pin_14-Pad14)*%
X123285200Y-76450000D03*
%TO.P,EXT2,15,Pin_15_15*%
%TO.N,/A6*%
X125825200Y-78990000D03*
%TO.P,EXT2,16,Pin_16_16*%
%TO.N,unconnected-(EXT2-Pin_16-Pad16)*%
X123285200Y-78990000D03*
%TO.P,EXT2,17,Pin_17_17*%
%TO.N,/A7*%
X125825200Y-81530000D03*
%TO.P,EXT2,18,Pin_18_18*%
%TO.N,unconnected-(EXT2-Pin_18-Pad18)*%
X123285200Y-81530000D03*
%TO.P,EXT2,19,Pin_19_19*%
%TO.N,unconnected-(EXT2-Pin_19-Pad19)*%
X125825200Y-84070000D03*
%TO.P,EXT2,20,Pin_20_20*%
%TO.N,unconnected-(EXT2-Pin_20-Pad20)*%
X123285200Y-84070000D03*
%TO.P,EXT2,21,Pin_21_21*%
%TO.N,unconnected-(EXT2-Pin_21-Pad21)*%
X125825200Y-86610000D03*
%TO.P,EXT2,22,Pin_22_22*%
%TO.N,unconnected-(EXT2-Pin_22-Pad22)*%
X123285200Y-86610000D03*
%TO.P,EXT2,23,Pin_23_23*%
%TO.N,/A8*%
X125825200Y-89150000D03*
%TO.P,EXT2,24,Pin_24_24*%
%TO.N,unconnected-(EXT2-Pin_24-Pad24)*%
X123285200Y-89150000D03*
%TO.P,EXT2,25,Pin_25_25*%
%TO.N,/A9*%
X125825200Y-91690000D03*
%TO.P,EXT2,26,Pin_26_26*%
%TO.N,unconnected-(EXT2-Pin_26-Pad26)*%
X123285200Y-91690000D03*
%TO.P,EXT2,27,Pin_27_27*%
%TO.N,/A10*%
X125825200Y-94230000D03*
%TO.P,EXT2,28,Pin_28_28*%
%TO.N,unconnected-(EXT2-Pin_28-Pad28)*%
X123285200Y-94230000D03*
%TO.P,EXT2,29,Pin_29_29*%
%TO.N,/A11*%
X125825200Y-96770000D03*
%TO.P,EXT2,30,Pin_30_30*%
%TO.N,unconnected-(EXT2-Pin_30-Pad30)*%
X123285200Y-96770000D03*
%TO.P,EXT2,31,Pin_31_31*%
%TO.N,/A12*%
X125825200Y-99310000D03*
%TO.P,EXT2,32,Pin_32_32*%
%TO.N,unconnected-(EXT2-Pin_32-Pad32)*%
X123285200Y-99310000D03*
%TO.P,EXT2,33,Pin_33_33*%
%TO.N,/A13*%
X125825200Y-101850000D03*
%TO.P,EXT2,34,Pin_34_34*%
%TO.N,unconnected-(EXT2-Pin_34-Pad34)*%
X123285200Y-101850000D03*
%TO.P,EXT2,35,Pin_35_35*%
%TO.N,/A14*%
X125825200Y-104390000D03*
%TO.P,EXT2,36,Pin_36_36*%
%TO.N,unconnected-(EXT2-Pin_36-Pad36)*%
X123285200Y-104390000D03*
%TO.P,EXT2,37,Pin_37_37*%
%TO.N,/A15*%
X125825200Y-106930000D03*
%TO.P,EXT2,38,Pin_38_38*%
%TO.N,unconnected-(EXT2-Pin_38-Pad38)*%
X123285200Y-106930000D03*
%TO.P,EXT2,39,Pin_39_39*%
%TO.N,GND*%
X125825200Y-109470000D03*
%TO.P,EXT2,40,Pin_40_40*%
X123285200Y-109470000D03*
%TD*%
D13*
%TO.N,/A11*%
X104535000Y-127723500D03*
%TO.N,GND*%
X104540300Y-112402400D03*
%TO.N,/D7*%
X131935600Y-98040000D03*
%TO.N,/D6*%
X132224600Y-90420000D03*
%TO.N,/D5*%
X132939000Y-87956100D03*
%TO.N,/D4*%
X134080000Y-82800000D03*
%TO.N,/D3*%
X136620000Y-77720000D03*
%TO.N,/D2*%
X135018700Y-72641100D03*
%TO.N,/~{MREQ}*%
X92170000Y-105751500D03*
%TO.N,/~{RD}*%
X111128000Y-107924500D03*
%TD*%
%TO.N,/A11*%
D14*
X124675200Y-98844800D02*
X124675200Y-98833654D01*
X104535000Y-127723500D02*
X104535000Y-117289986D01*
X124855200Y-98653654D02*
X124855200Y-98040000D01*
X124460000Y-100123600D02*
X124460000Y-99060000D01*
X121244986Y-100580000D02*
X124003600Y-100580000D01*
X124003600Y-100580000D02*
X124460000Y-100123600D01*
X124855200Y-98040000D02*
X126125200Y-96770000D01*
X104535000Y-117289986D02*
X121244986Y-100580000D01*
X124675200Y-98833654D02*
X124855200Y-98653654D01*
X124460000Y-99060000D02*
X124675200Y-98844800D01*
%TO.N,/A10*%
X121217000Y-87976900D02*
X126608700Y-87976900D01*
X95980000Y-128770000D02*
X95980000Y-106842100D01*
X126608700Y-87976900D02*
X127683800Y-89052000D01*
X95980000Y-106842100D02*
X99702100Y-103120000D01*
X127683800Y-92671400D02*
X126125200Y-94230000D01*
X127683800Y-89052000D02*
X127683800Y-92671400D01*
X106073900Y-103120000D02*
X121217000Y-87976900D01*
X99702100Y-103120000D02*
X106073900Y-103120000D01*
%TO.N,/A9*%
X98520000Y-117080000D02*
X98520000Y-128770000D01*
X122700000Y-92900000D02*
X98520000Y-117080000D01*
X126125200Y-91690000D02*
X124915200Y-92900000D01*
X124915200Y-92900000D02*
X122700000Y-92900000D01*
%TO.N,/A8*%
X124460000Y-95043600D02*
X124003600Y-95500000D01*
X122701700Y-95500000D02*
X101060000Y-117141700D01*
X125605800Y-93080000D02*
X125348854Y-93080000D01*
X127282100Y-90306900D02*
X127282100Y-92171000D01*
X126125200Y-89150000D02*
X127282100Y-90306900D01*
X125348854Y-93080000D02*
X124460000Y-93968854D01*
X127282100Y-92171000D02*
X126374800Y-93078300D01*
X124003600Y-95500000D02*
X122701700Y-95500000D01*
X101060000Y-117141700D02*
X101060000Y-128770000D01*
X126374800Y-93078300D02*
X125607500Y-93078300D01*
X125607500Y-93078300D02*
X125605800Y-93080000D01*
X124460000Y-93968854D02*
X124460000Y-95043600D01*
%TO.N,/A7*%
X122135200Y-98844800D02*
X122135200Y-98833654D01*
X122808854Y-98160000D02*
X122820000Y-98160000D01*
X103600000Y-128770000D02*
X103600000Y-117380000D01*
X126487800Y-95500000D02*
X128085500Y-93902300D01*
X122820000Y-98160000D02*
X122940000Y-98040000D01*
X124003600Y-98040000D02*
X124460000Y-97583600D01*
X128085500Y-93902300D02*
X128085500Y-83490300D01*
X124460000Y-96508854D02*
X125468854Y-95500000D01*
X128085500Y-83490300D02*
X126125200Y-81530000D01*
X122135200Y-98833654D02*
X122808854Y-98160000D01*
X124460000Y-97583600D02*
X124460000Y-96508854D01*
X125468854Y-95500000D02*
X126487800Y-95500000D01*
X103600000Y-117380000D02*
X122135200Y-98844800D01*
X122940000Y-98040000D02*
X124003600Y-98040000D01*
%TO.N,/A6*%
X128487200Y-108774200D02*
X128487200Y-81352000D01*
X128487200Y-81352000D02*
X126125200Y-78990000D01*
X126620100Y-110641300D02*
X128487200Y-108774200D01*
X106140000Y-128770000D02*
X124268700Y-110641300D01*
X124268700Y-110641300D02*
X126620100Y-110641300D01*
%TO.N,/A5*%
X109843500Y-129933500D02*
X111744900Y-129933500D01*
X129290600Y-110388700D02*
X129290600Y-79615400D01*
X108680000Y-128770000D02*
X109843500Y-129933500D01*
X112490000Y-127189300D02*
X129290600Y-110388700D01*
X129290600Y-79615400D02*
X126125200Y-76450000D01*
X112490000Y-129188400D02*
X112490000Y-127189300D01*
X111744900Y-129933500D02*
X112490000Y-129188400D01*
%TO.N,/A4*%
X124600000Y-77600000D02*
X124600000Y-75435200D01*
X128888900Y-80104300D02*
X126384600Y-77600000D01*
X111220000Y-128770000D02*
X111220000Y-127769800D01*
X126384600Y-77600000D02*
X124600000Y-77600000D01*
X128888900Y-110100900D02*
X128888900Y-80104300D01*
X111220000Y-127769800D02*
X128888900Y-110100900D01*
X124600000Y-75435200D02*
X126125200Y-73910000D01*
%TO.N,/A3*%
X129692300Y-74937100D02*
X126125200Y-71370000D01*
X113760000Y-128770000D02*
X129692300Y-112837700D01*
X129692300Y-112837700D02*
X129692300Y-74937100D01*
%TO.N,/A2*%
X130094000Y-114976000D02*
X130094000Y-72798800D01*
X116300000Y-128770000D02*
X130094000Y-114976000D01*
X130094000Y-72798800D02*
X126125200Y-68830000D01*
%TO.N,/A1*%
X118840000Y-128770000D02*
X130495700Y-117114300D01*
X130495700Y-70660500D02*
X126125200Y-66290000D01*
X130495700Y-117114300D02*
X130495700Y-70660500D01*
%TO.N,/A0*%
X130897400Y-68522200D02*
X126125200Y-63750000D01*
X121380000Y-128770000D02*
X130897400Y-119252600D01*
X130897400Y-119252600D02*
X130897400Y-68522200D01*
%TO.N,GND*%
X99790000Y-130040000D02*
X98520000Y-131310000D01*
X104540300Y-112402400D02*
X99790000Y-117152700D01*
X99790000Y-117152700D02*
X99790000Y-130040000D01*
X123920000Y-128770000D02*
X123920000Y-131310000D01*
%TO.N,/D7*%
X126460000Y-128770000D02*
X131935600Y-123294400D01*
X131935600Y-123294400D02*
X131935600Y-98040000D01*
%TO.N,/D6*%
X132537300Y-90732700D02*
X132224600Y-90420000D01*
X129000000Y-128770000D02*
X132537300Y-125232700D01*
X132537300Y-125232700D02*
X132537300Y-90732700D01*
%TO.N,/D5*%
X131540000Y-128770000D02*
X132939000Y-127371000D01*
X132939000Y-127371000D02*
X132939000Y-87956100D01*
%TO.N,/D4*%
X134080000Y-82800000D02*
X134080000Y-128770000D01*
%TO.N,/D3*%
X136620000Y-128770000D02*
X136620000Y-77720000D01*
%TO.N,/D2*%
X139160000Y-76782400D02*
X135018700Y-72641100D01*
X139160000Y-128770000D02*
X139160000Y-76782400D01*
%TO.N,/D1*%
X141700000Y-77666900D02*
X141700000Y-128770000D01*
X126615900Y-62582800D02*
X141700000Y-77666900D01*
X102625200Y-66290000D02*
X106332400Y-62582800D01*
X106332400Y-62582800D02*
X126615900Y-62582800D01*
%TO.N,/D0*%
X144240000Y-77120200D02*
X127153200Y-60033400D01*
X144240000Y-128770000D02*
X144240000Y-77120200D01*
X106341800Y-60033400D02*
X102625200Y-63750000D01*
X127153200Y-60033400D02*
X106341800Y-60033400D01*
%TO.N,/~{MREQ}*%
X90900000Y-131310000D02*
X92170000Y-130040000D01*
X92170000Y-130040000D02*
X92170000Y-105751500D01*
%TO.N,/~{IOREQ}*%
X101272300Y-110023200D02*
X97249800Y-114045700D01*
X97249800Y-114045700D02*
X97249800Y-130040200D01*
X101272300Y-105742900D02*
X101272300Y-110023200D01*
X102625200Y-104390000D02*
X101272300Y-105742900D01*
X97249800Y-130040200D02*
X95980000Y-131310000D01*
%TO.N,/~{RD}*%
X102330000Y-116722500D02*
X102330000Y-130040000D01*
X102330000Y-130040000D02*
X101060000Y-131310000D01*
X111128000Y-107924500D02*
X102330000Y-116722500D01*
%TO.N,/~{WR}*%
X106140000Y-132360000D02*
X104500000Y-134000000D01*
X99697300Y-100580000D02*
X101355200Y-100580000D01*
X104500000Y-134000000D02*
X95900000Y-134000000D01*
X95900000Y-134000000D02*
X94802900Y-132902900D01*
X94802900Y-132902900D02*
X94802900Y-105474400D01*
X106140000Y-131310000D02*
X106140000Y-132360000D01*
X94802900Y-105474400D02*
X99697300Y-100580000D01*
X101355200Y-100580000D02*
X102625200Y-99310000D01*
%TD*%
%TA.AperFunction,Conductor*%
%TO.N,GND*%
G36*
X104941444Y-129423999D02*
G01*
X104980486Y-129469056D01*
X104984951Y-129477820D01*
X105109890Y-129649786D01*
X105260213Y-129800109D01*
X105432182Y-129925050D01*
X105440946Y-129929516D01*
X105491742Y-129977491D01*
X105508536Y-130045312D01*
X105485998Y-130111447D01*
X105440946Y-130150484D01*
X105432182Y-130154949D01*
X105260213Y-130279890D01*
X105109890Y-130430213D01*
X104984951Y-130602179D01*
X104888444Y-130791585D01*
X104822753Y-130993760D01*
X104789500Y-131203713D01*
X104789500Y-131416286D01*
X104822753Y-131626239D01*
X104888444Y-131828414D01*
X104984951Y-132017820D01*
X105109889Y-132189784D01*
X105109893Y-132189788D01*
X105109896Y-132189792D01*
X105197753Y-132277649D01*
X105231237Y-132338973D01*
X105226253Y-132408664D01*
X105197752Y-132453011D01*
X104287584Y-133363181D01*
X104226261Y-133396666D01*
X104199903Y-133399500D01*
X96200098Y-133399500D01*
X96133059Y-133379815D01*
X96112417Y-133363181D01*
X95592273Y-132843037D01*
X95558788Y-132781714D01*
X95563772Y-132712022D01*
X95605644Y-132656089D01*
X95671108Y-132631672D01*
X95699345Y-132632882D01*
X95873713Y-132660500D01*
X95873714Y-132660500D01*
X96086286Y-132660500D01*
X96086287Y-132660500D01*
X96296243Y-132627246D01*
X96498412Y-132561557D01*
X96687816Y-132465051D01*
X96807177Y-132378331D01*
X96859786Y-132340109D01*
X96859788Y-132340106D01*
X96859792Y-132340104D01*
X97010104Y-132189792D01*
X97010106Y-132189788D01*
X97010109Y-132189786D01*
X97095890Y-132071717D01*
X97135051Y-132017816D01*
X97139793Y-132008508D01*
X97187763Y-131957711D01*
X97255583Y-131940911D01*
X97321719Y-131963445D01*
X97360763Y-132008500D01*
X97365373Y-132017547D01*
X97404728Y-132071716D01*
X98037037Y-131439408D01*
X98054075Y-131502993D01*
X98119901Y-131617007D01*
X98212993Y-131710099D01*
X98327007Y-131775925D01*
X98390590Y-131792962D01*
X97758282Y-132425269D01*
X97758282Y-132425270D01*
X97812449Y-132464624D01*
X98001782Y-132561095D01*
X98203870Y-132626757D01*
X98413754Y-132660000D01*
X98626246Y-132660000D01*
X98836127Y-132626757D01*
X98836130Y-132626757D01*
X99038217Y-132561095D01*
X99227554Y-132464622D01*
X99281716Y-132425270D01*
X99281717Y-132425270D01*
X98649408Y-131792962D01*
X98712993Y-131775925D01*
X98827007Y-131710099D01*
X98920099Y-131617007D01*
X98985925Y-131502993D01*
X99002962Y-131439409D01*
X99635270Y-132071717D01*
X99635270Y-132071716D01*
X99674622Y-132017555D01*
X99679232Y-132008507D01*
X99727205Y-131957709D01*
X99795025Y-131940912D01*
X99861161Y-131963447D01*
X99900204Y-132008504D01*
X99904949Y-132017817D01*
X100029890Y-132189786D01*
X100180213Y-132340109D01*
X100352179Y-132465048D01*
X100352181Y-132465049D01*
X100352184Y-132465051D01*
X100541588Y-132561557D01*
X100743757Y-132627246D01*
X100953713Y-132660500D01*
X100953714Y-132660500D01*
X101166286Y-132660500D01*
X101166287Y-132660500D01*
X101376243Y-132627246D01*
X101578412Y-132561557D01*
X101767816Y-132465051D01*
X101887177Y-132378331D01*
X101939786Y-132340109D01*
X101939788Y-132340106D01*
X101939792Y-132340104D01*
X102090104Y-132189792D01*
X102090106Y-132189788D01*
X102090109Y-132189786D01*
X102215048Y-132017820D01*
X102215047Y-132017820D01*
X102215051Y-132017816D01*
X102311557Y-131828412D01*
X102377246Y-131626243D01*
X102410500Y-131416287D01*
X102410500Y-131203713D01*
X102377246Y-130993757D01*
X102363506Y-130951473D01*
X102361512Y-130881635D01*
X102393755Y-130825478D01*
X102688506Y-130530728D01*
X102688511Y-130530724D01*
X102698714Y-130520520D01*
X102698716Y-130520520D01*
X102810520Y-130408716D01*
X102884894Y-130279896D01*
X102889577Y-130271785D01*
X102930500Y-130119058D01*
X102930500Y-130117497D01*
X102933777Y-130106643D01*
X102947560Y-130085549D01*
X102957733Y-130062494D01*
X102966348Y-130056798D01*
X102971998Y-130048154D01*
X102994999Y-130037860D01*
X103016020Y-130023965D01*
X103026344Y-130023831D01*
X103035772Y-130019613D01*
X103060689Y-130023389D01*
X103085884Y-130023065D01*
X103090796Y-130024549D01*
X103283757Y-130087246D01*
X103493713Y-130120500D01*
X103493714Y-130120500D01*
X103706286Y-130120500D01*
X103706287Y-130120500D01*
X103916243Y-130087246D01*
X104118412Y-130021557D01*
X104307816Y-129925051D01*
X104406187Y-129853581D01*
X104479786Y-129800109D01*
X104479788Y-129800106D01*
X104479792Y-129800104D01*
X104630104Y-129649792D01*
X104630106Y-129649788D01*
X104630109Y-129649786D01*
X104755048Y-129477820D01*
X104755047Y-129477820D01*
X104755051Y-129477816D01*
X104759514Y-129469054D01*
X104807488Y-129418259D01*
X104875308Y-129401463D01*
X104941444Y-129423999D01*
G37*
%TD.AperFunction*%
%TA.AperFunction,Conductor*%
G36*
X87161444Y-129423999D02*
G01*
X87200486Y-129469056D01*
X87204951Y-129477820D01*
X87329890Y-129649786D01*
X87480213Y-129800109D01*
X87652179Y-129925048D01*
X87652181Y-129925049D01*
X87652184Y-129925051D01*
X87661493Y-129929794D01*
X87712290Y-129977766D01*
X87729087Y-130045587D01*
X87706552Y-130111722D01*
X87661505Y-130150760D01*
X87652446Y-130155376D01*
X87652440Y-130155380D01*
X87598282Y-130194727D01*
X87598282Y-130194728D01*
X88230591Y-130827037D01*
X88167007Y-130844075D01*
X88052993Y-130909901D01*
X87959901Y-131002993D01*
X87894075Y-131117007D01*
X87877037Y-131180591D01*
X87244728Y-130548282D01*
X87244727Y-130548282D01*
X87205380Y-130602440D01*
X87205376Y-130602446D01*
X87200760Y-130611505D01*
X87152781Y-130662297D01*
X87084959Y-130679087D01*
X87018826Y-130656543D01*
X86979794Y-130611493D01*
X86975051Y-130602184D01*
X86975049Y-130602181D01*
X86975048Y-130602179D01*
X86850109Y-130430213D01*
X86699786Y-130279890D01*
X86527820Y-130154951D01*
X86519600Y-130150763D01*
X86519054Y-130150485D01*
X86468259Y-130102512D01*
X86451463Y-130034692D01*
X86473999Y-129968556D01*
X86519054Y-129929515D01*
X86527816Y-129925051D01*
X86626187Y-129853581D01*
X86699786Y-129800109D01*
X86699788Y-129800106D01*
X86699792Y-129800104D01*
X86850104Y-129649792D01*
X86850106Y-129649788D01*
X86850109Y-129649786D01*
X86975048Y-129477820D01*
X86975047Y-129477820D01*
X86975051Y-129477816D01*
X86979514Y-129469054D01*
X87027488Y-129418259D01*
X87095308Y-129401463D01*
X87161444Y-129423999D01*
G37*
%TD.AperFunction*%
%TA.AperFunction,Conductor*%
G36*
X107481444Y-129423999D02*
G01*
X107520486Y-129469056D01*
X107524951Y-129477820D01*
X107649890Y-129649786D01*
X107800213Y-129800109D01*
X107972179Y-129925048D01*
X107972181Y-129925049D01*
X107972184Y-129925051D01*
X107981493Y-129929794D01*
X108032290Y-129977766D01*
X108049087Y-130045587D01*
X108026552Y-130111722D01*
X107981505Y-130150760D01*
X107972446Y-130155376D01*
X107972440Y-130155380D01*
X107918282Y-130194727D01*
X107918282Y-130194728D01*
X108550591Y-130827037D01*
X108487007Y-130844075D01*
X108372993Y-130909901D01*
X108279901Y-131002993D01*
X108214075Y-131117007D01*
X108197037Y-131180591D01*
X107564728Y-130548282D01*
X107564727Y-130548282D01*
X107525380Y-130602440D01*
X107525376Y-130602446D01*
X107520760Y-130611505D01*
X107472781Y-130662297D01*
X107404959Y-130679087D01*
X107338826Y-130656543D01*
X107299794Y-130611493D01*
X107295051Y-130602184D01*
X107295049Y-130602181D01*
X107295048Y-130602179D01*
X107170109Y-130430213D01*
X107019786Y-130279890D01*
X106847820Y-130154951D01*
X106839600Y-130150763D01*
X106839054Y-130150485D01*
X106788259Y-130102512D01*
X106771463Y-130034692D01*
X106793999Y-129968556D01*
X106839054Y-129929515D01*
X106847816Y-129925051D01*
X106946187Y-129853581D01*
X107019786Y-129800109D01*
X107019788Y-129800106D01*
X107019792Y-129800104D01*
X107170104Y-129649792D01*
X107170106Y-129649788D01*
X107170109Y-129649786D01*
X107295048Y-129477820D01*
X107295047Y-129477820D01*
X107295051Y-129477816D01*
X107299514Y-129469054D01*
X107347488Y-129418259D01*
X107415308Y-129401463D01*
X107481444Y-129423999D01*
G37*
%TD.AperFunction*%
%TA.AperFunction,Conductor*%
G36*
X112847905Y-129782242D02*
G01*
X112877456Y-129798105D01*
X112933272Y-129838657D01*
X113052184Y-129925051D01*
X113061493Y-129929794D01*
X113112290Y-129977766D01*
X113129087Y-130045587D01*
X113106552Y-130111722D01*
X113061505Y-130150760D01*
X113052446Y-130155376D01*
X113052440Y-130155380D01*
X112998282Y-130194727D01*
X112998282Y-130194728D01*
X113630591Y-130827037D01*
X113567007Y-130844075D01*
X113452993Y-130909901D01*
X113359901Y-131002993D01*
X113294075Y-131117007D01*
X113277037Y-131180591D01*
X112644728Y-130548282D01*
X112644727Y-130548282D01*
X112605380Y-130602440D01*
X112605376Y-130602446D01*
X112600760Y-130611505D01*
X112552781Y-130662297D01*
X112484959Y-130679087D01*
X112418826Y-130656543D01*
X112389032Y-130626789D01*
X112383862Y-130619477D01*
X112375051Y-130602184D01*
X112250104Y-130430208D01*
X112249881Y-130429985D01*
X112247176Y-130426159D01*
X112236111Y-130393839D01*
X112224626Y-130361649D01*
X112224813Y-130360841D01*
X112224545Y-130360056D01*
X112232716Y-130326857D01*
X112240452Y-130293595D01*
X112241121Y-130292714D01*
X112241245Y-130292211D01*
X112242167Y-130291337D01*
X112260739Y-130266894D01*
X112716892Y-129810741D01*
X112778213Y-129777258D01*
X112847905Y-129782242D01*
G37*
%TD.AperFunction*%
%TA.AperFunction,Conductor*%
G36*
X117641444Y-129423999D02*
G01*
X117680486Y-129469056D01*
X117684951Y-129477820D01*
X117809890Y-129649786D01*
X117960213Y-129800109D01*
X118132179Y-129925048D01*
X118132181Y-129925049D01*
X118132184Y-129925051D01*
X118141493Y-129929794D01*
X118192290Y-129977766D01*
X118209087Y-130045587D01*
X118186552Y-130111722D01*
X118141505Y-130150760D01*
X118132446Y-130155376D01*
X118132440Y-130155380D01*
X118078282Y-130194727D01*
X118078282Y-130194728D01*
X118710591Y-130827037D01*
X118647007Y-130844075D01*
X118532993Y-130909901D01*
X118439901Y-131002993D01*
X118374075Y-131117007D01*
X118357037Y-131180591D01*
X117724728Y-130548282D01*
X117724727Y-130548282D01*
X117685380Y-130602440D01*
X117685376Y-130602446D01*
X117680760Y-130611505D01*
X117632781Y-130662297D01*
X117564959Y-130679087D01*
X117498826Y-130656543D01*
X117459794Y-130611493D01*
X117455051Y-130602184D01*
X117455049Y-130602181D01*
X117455048Y-130602179D01*
X117330109Y-130430213D01*
X117179786Y-130279890D01*
X117007820Y-130154951D01*
X116999600Y-130150763D01*
X116999054Y-130150485D01*
X116948259Y-130102512D01*
X116931463Y-130034692D01*
X116953999Y-129968556D01*
X116999054Y-129929515D01*
X117007816Y-129925051D01*
X117106187Y-129853581D01*
X117179786Y-129800109D01*
X117179788Y-129800106D01*
X117179792Y-129800104D01*
X117330104Y-129649792D01*
X117330106Y-129649788D01*
X117330109Y-129649786D01*
X117455048Y-129477820D01*
X117455047Y-129477820D01*
X117455051Y-129477816D01*
X117459514Y-129469054D01*
X117507488Y-129418259D01*
X117575308Y-129401463D01*
X117641444Y-129423999D01*
G37*
%TD.AperFunction*%
%TA.AperFunction,Conductor*%
G36*
X123454075Y-128962993D02*
G01*
X123519901Y-129077007D01*
X123612993Y-129170099D01*
X123727007Y-129235925D01*
X123790591Y-129252962D01*
X123189971Y-129853581D01*
X123268711Y-129970895D01*
X123269920Y-129974729D01*
X123272844Y-129977491D01*
X123280343Y-130007778D01*
X123289727Y-130037529D01*
X123288671Y-130041408D01*
X123289638Y-130045312D01*
X123279573Y-130074844D01*
X123271383Y-130104947D01*
X123268397Y-130107640D01*
X123267100Y-130111447D01*
X123222051Y-130150483D01*
X123212440Y-130155380D01*
X123158282Y-130194727D01*
X123158282Y-130194728D01*
X123790591Y-130827037D01*
X123727007Y-130844075D01*
X123612993Y-130909901D01*
X123519901Y-131002993D01*
X123454075Y-131117007D01*
X123437037Y-131180591D01*
X122804728Y-130548282D01*
X122804727Y-130548282D01*
X122765380Y-130602440D01*
X122765376Y-130602446D01*
X122760760Y-130611505D01*
X122712781Y-130662297D01*
X122644959Y-130679087D01*
X122578826Y-130656543D01*
X122539794Y-130611493D01*
X122535051Y-130602184D01*
X122535049Y-130602181D01*
X122535048Y-130602179D01*
X122410109Y-130430213D01*
X122259786Y-130279890D01*
X122087820Y-130154951D01*
X122079600Y-130150763D01*
X122079054Y-130150485D01*
X122028259Y-130102512D01*
X122011463Y-130034692D01*
X122033999Y-129968556D01*
X122079054Y-129929515D01*
X122087816Y-129925051D01*
X122186187Y-129853581D01*
X122259786Y-129800109D01*
X122259788Y-129800106D01*
X122259792Y-129800104D01*
X122410104Y-129649792D01*
X122410106Y-129649788D01*
X122410109Y-129649786D01*
X122495890Y-129531717D01*
X122535051Y-129477816D01*
X122539793Y-129468508D01*
X122587763Y-129417711D01*
X122655583Y-129400911D01*
X122721719Y-129423445D01*
X122760763Y-129468500D01*
X122765373Y-129477547D01*
X122804728Y-129531716D01*
X123437037Y-128899408D01*
X123454075Y-128962993D01*
G37*
%TD.AperFunction*%
%TA.AperFunction,Conductor*%
G36*
X125035270Y-129531717D02*
G01*
X125035270Y-129531716D01*
X125074622Y-129477555D01*
X125079232Y-129468507D01*
X125127205Y-129417709D01*
X125195025Y-129400912D01*
X125261161Y-129423447D01*
X125300204Y-129468504D01*
X125304949Y-129477817D01*
X125429890Y-129649786D01*
X125580213Y-129800109D01*
X125752179Y-129925048D01*
X125752181Y-129925049D01*
X125752184Y-129925051D01*
X125761493Y-129929794D01*
X125812290Y-129977766D01*
X125829087Y-130045587D01*
X125806552Y-130111722D01*
X125761505Y-130150760D01*
X125752446Y-130155376D01*
X125752440Y-130155380D01*
X125698282Y-130194727D01*
X125698282Y-130194728D01*
X126330591Y-130827037D01*
X126267007Y-130844075D01*
X126152993Y-130909901D01*
X126059901Y-131002993D01*
X125994075Y-131117007D01*
X125977037Y-131180591D01*
X125344728Y-130548282D01*
X125344727Y-130548282D01*
X125305380Y-130602440D01*
X125300483Y-130612051D01*
X125252506Y-130662845D01*
X125184684Y-130679638D01*
X125118550Y-130657098D01*
X125079516Y-130612048D01*
X125074626Y-130602452D01*
X125035270Y-130548282D01*
X125035269Y-130548282D01*
X124402962Y-131180590D01*
X124385925Y-131117007D01*
X124320099Y-131002993D01*
X124227007Y-130909901D01*
X124112993Y-130844075D01*
X124049409Y-130827037D01*
X124681716Y-130194728D01*
X124627550Y-130155375D01*
X124617954Y-130150486D01*
X124567157Y-130102512D01*
X124550361Y-130034692D01*
X124572897Y-129968556D01*
X124617954Y-129929514D01*
X124627554Y-129924622D01*
X124681716Y-129885270D01*
X124681717Y-129885270D01*
X124049408Y-129252962D01*
X124112993Y-129235925D01*
X124227007Y-129170099D01*
X124320099Y-129077007D01*
X124385925Y-128962993D01*
X124402962Y-128899408D01*
X125035270Y-129531717D01*
G37*
%TD.AperFunction*%
%TA.AperFunction,Conductor*%
G36*
X127801444Y-129423999D02*
G01*
X127840486Y-129469056D01*
X127844951Y-129477820D01*
X127969890Y-129649786D01*
X128120213Y-129800109D01*
X128292179Y-129925048D01*
X128292181Y-129925049D01*
X128292184Y-129925051D01*
X128301493Y-129929794D01*
X128352290Y-129977766D01*
X128369087Y-130045587D01*
X128346552Y-130111722D01*
X128301505Y-130150760D01*
X128292446Y-130155376D01*
X128292440Y-130155380D01*
X128238282Y-130194727D01*
X128238282Y-130194728D01*
X128870591Y-130827037D01*
X128807007Y-130844075D01*
X128692993Y-130909901D01*
X128599901Y-131002993D01*
X128534075Y-131117007D01*
X128517037Y-131180591D01*
X127884728Y-130548282D01*
X127884727Y-130548282D01*
X127845380Y-130602440D01*
X127840483Y-130612051D01*
X127792506Y-130662845D01*
X127724684Y-130679638D01*
X127658550Y-130657098D01*
X127619516Y-130612048D01*
X127614626Y-130602452D01*
X127575270Y-130548282D01*
X126942962Y-131180590D01*
X126925925Y-131117007D01*
X126860099Y-131002993D01*
X126767007Y-130909901D01*
X126652993Y-130844075D01*
X126589409Y-130827037D01*
X127221716Y-130194728D01*
X127167547Y-130155373D01*
X127167547Y-130155372D01*
X127158500Y-130150763D01*
X127107706Y-130102788D01*
X127090912Y-130034966D01*
X127113451Y-129968832D01*
X127158508Y-129929793D01*
X127167816Y-129925051D01*
X127286728Y-129838657D01*
X127339786Y-129800109D01*
X127339788Y-129800106D01*
X127339792Y-129800104D01*
X127490104Y-129649792D01*
X127490106Y-129649788D01*
X127490109Y-129649786D01*
X127615048Y-129477820D01*
X127615047Y-129477820D01*
X127615051Y-129477816D01*
X127619514Y-129469054D01*
X127667488Y-129418259D01*
X127735308Y-129401463D01*
X127801444Y-129423999D01*
G37*
%TD.AperFunction*%
%TA.AperFunction,Conductor*%
G36*
X130341444Y-129423999D02*
G01*
X130380486Y-129469056D01*
X130384951Y-129477820D01*
X130509890Y-129649786D01*
X130660213Y-129800109D01*
X130832179Y-129925048D01*
X130832181Y-129925049D01*
X130832184Y-129925051D01*
X130841493Y-129929794D01*
X130892290Y-129977766D01*
X130909087Y-130045587D01*
X130886552Y-130111722D01*
X130841505Y-130150760D01*
X130832446Y-130155376D01*
X130832440Y-130155380D01*
X130778282Y-130194727D01*
X130778282Y-130194728D01*
X131410591Y-130827037D01*
X131347007Y-130844075D01*
X131232993Y-130909901D01*
X131139901Y-131002993D01*
X131074075Y-131117007D01*
X131057037Y-131180591D01*
X130424728Y-130548282D01*
X130424727Y-130548282D01*
X130385380Y-130602440D01*
X130380483Y-130612051D01*
X130332506Y-130662845D01*
X130264684Y-130679638D01*
X130198550Y-130657098D01*
X130159516Y-130612048D01*
X130154626Y-130602452D01*
X130115270Y-130548282D01*
X130115269Y-130548282D01*
X129482962Y-131180590D01*
X129465925Y-131117007D01*
X129400099Y-131002993D01*
X129307007Y-130909901D01*
X129192993Y-130844075D01*
X129129409Y-130827037D01*
X129761716Y-130194728D01*
X129707547Y-130155373D01*
X129707547Y-130155372D01*
X129698500Y-130150763D01*
X129647706Y-130102788D01*
X129630912Y-130034966D01*
X129653451Y-129968832D01*
X129698508Y-129929793D01*
X129707816Y-129925051D01*
X129826728Y-129838657D01*
X129879786Y-129800109D01*
X129879788Y-129800106D01*
X129879792Y-129800104D01*
X130030104Y-129649792D01*
X130030106Y-129649788D01*
X130030109Y-129649786D01*
X130155048Y-129477820D01*
X130155047Y-129477820D01*
X130155051Y-129477816D01*
X130159514Y-129469054D01*
X130207488Y-129418259D01*
X130275308Y-129401463D01*
X130341444Y-129423999D01*
G37*
%TD.AperFunction*%
%TA.AperFunction,Conductor*%
G36*
X132881444Y-129423999D02*
G01*
X132920486Y-129469056D01*
X132924951Y-129477820D01*
X133049890Y-129649786D01*
X133200213Y-129800109D01*
X133372179Y-129925048D01*
X133372181Y-129925049D01*
X133372184Y-129925051D01*
X133381493Y-129929794D01*
X133432290Y-129977766D01*
X133449087Y-130045587D01*
X133426552Y-130111722D01*
X133381505Y-130150760D01*
X133372446Y-130155376D01*
X133372440Y-130155380D01*
X133318282Y-130194727D01*
X133318282Y-130194728D01*
X133950591Y-130827037D01*
X133887007Y-130844075D01*
X133772993Y-130909901D01*
X133679901Y-131002993D01*
X133614075Y-131117007D01*
X133597037Y-131180591D01*
X132964728Y-130548282D01*
X132964727Y-130548282D01*
X132925380Y-130602440D01*
X132920483Y-130612051D01*
X132872506Y-130662845D01*
X132804684Y-130679638D01*
X132738550Y-130657098D01*
X132699516Y-130612048D01*
X132694626Y-130602452D01*
X132655270Y-130548282D01*
X132655269Y-130548282D01*
X132022962Y-131180590D01*
X132005925Y-131117007D01*
X131940099Y-131002993D01*
X131847007Y-130909901D01*
X131732993Y-130844075D01*
X131669409Y-130827037D01*
X132301716Y-130194728D01*
X132247547Y-130155373D01*
X132247547Y-130155372D01*
X132238500Y-130150763D01*
X132187706Y-130102788D01*
X132170912Y-130034966D01*
X132193451Y-129968832D01*
X132238508Y-129929793D01*
X132247816Y-129925051D01*
X132366728Y-129838657D01*
X132419786Y-129800109D01*
X132419788Y-129800106D01*
X132419792Y-129800104D01*
X132570104Y-129649792D01*
X132570106Y-129649788D01*
X132570109Y-129649786D01*
X132695048Y-129477820D01*
X132695047Y-129477820D01*
X132695051Y-129477816D01*
X132699514Y-129469054D01*
X132747488Y-129418259D01*
X132815308Y-129401463D01*
X132881444Y-129423999D01*
G37*
%TD.AperFunction*%
%TA.AperFunction,Conductor*%
G36*
X135421444Y-129423999D02*
G01*
X135460486Y-129469056D01*
X135464951Y-129477820D01*
X135589890Y-129649786D01*
X135740213Y-129800109D01*
X135912179Y-129925048D01*
X135912181Y-129925049D01*
X135912184Y-129925051D01*
X135921493Y-129929794D01*
X135972290Y-129977766D01*
X135989087Y-130045587D01*
X135966552Y-130111722D01*
X135921505Y-130150760D01*
X135912446Y-130155376D01*
X135912440Y-130155380D01*
X135858282Y-130194727D01*
X135858282Y-130194728D01*
X136490591Y-130827037D01*
X136427007Y-130844075D01*
X136312993Y-130909901D01*
X136219901Y-131002993D01*
X136154075Y-131117007D01*
X136137037Y-131180591D01*
X135504728Y-130548282D01*
X135504727Y-130548282D01*
X135465380Y-130602440D01*
X135460483Y-130612051D01*
X135412506Y-130662845D01*
X135344684Y-130679638D01*
X135278550Y-130657098D01*
X135239516Y-130612048D01*
X135234626Y-130602452D01*
X135195270Y-130548282D01*
X135195269Y-130548282D01*
X134562962Y-131180590D01*
X134545925Y-131117007D01*
X134480099Y-131002993D01*
X134387007Y-130909901D01*
X134272993Y-130844075D01*
X134209409Y-130827037D01*
X134841716Y-130194728D01*
X134787547Y-130155373D01*
X134787547Y-130155372D01*
X134778500Y-130150763D01*
X134727706Y-130102788D01*
X134710912Y-130034966D01*
X134733451Y-129968832D01*
X134778508Y-129929793D01*
X134787816Y-129925051D01*
X134906728Y-129838657D01*
X134959786Y-129800109D01*
X134959788Y-129800106D01*
X134959792Y-129800104D01*
X135110104Y-129649792D01*
X135110106Y-129649788D01*
X135110109Y-129649786D01*
X135235048Y-129477820D01*
X135235047Y-129477820D01*
X135235051Y-129477816D01*
X135239514Y-129469054D01*
X135287488Y-129418259D01*
X135355308Y-129401463D01*
X135421444Y-129423999D01*
G37*
%TD.AperFunction*%
%TA.AperFunction,Conductor*%
G36*
X137961444Y-129423999D02*
G01*
X138000486Y-129469056D01*
X138004951Y-129477820D01*
X138129890Y-129649786D01*
X138280213Y-129800109D01*
X138452179Y-129925048D01*
X138452181Y-129925049D01*
X138452184Y-129925051D01*
X138461493Y-129929794D01*
X138512290Y-129977766D01*
X138529087Y-130045587D01*
X138506552Y-130111722D01*
X138461505Y-130150760D01*
X138452446Y-130155376D01*
X138452440Y-130155380D01*
X138398282Y-130194727D01*
X138398282Y-130194728D01*
X139030591Y-130827037D01*
X138967007Y-130844075D01*
X138852993Y-130909901D01*
X138759901Y-131002993D01*
X138694075Y-131117007D01*
X138677037Y-131180591D01*
X138044728Y-130548282D01*
X138044727Y-130548282D01*
X138005380Y-130602440D01*
X138000483Y-130612051D01*
X137952506Y-130662845D01*
X137884684Y-130679638D01*
X137818550Y-130657098D01*
X137779516Y-130612048D01*
X137774626Y-130602452D01*
X137735270Y-130548282D01*
X137735269Y-130548282D01*
X137102962Y-131180590D01*
X137085925Y-131117007D01*
X137020099Y-131002993D01*
X136927007Y-130909901D01*
X136812993Y-130844075D01*
X136749409Y-130827037D01*
X137381716Y-130194728D01*
X137327547Y-130155373D01*
X137327547Y-130155372D01*
X137318500Y-130150763D01*
X137267706Y-130102788D01*
X137250912Y-130034966D01*
X137273451Y-129968832D01*
X137318508Y-129929793D01*
X137327816Y-129925051D01*
X137446728Y-129838657D01*
X137499786Y-129800109D01*
X137499788Y-129800106D01*
X137499792Y-129800104D01*
X137650104Y-129649792D01*
X137650106Y-129649788D01*
X137650109Y-129649786D01*
X137775048Y-129477820D01*
X137775047Y-129477820D01*
X137775051Y-129477816D01*
X137779514Y-129469054D01*
X137827488Y-129418259D01*
X137895308Y-129401463D01*
X137961444Y-129423999D01*
G37*
%TD.AperFunction*%
%TA.AperFunction,Conductor*%
G36*
X140501444Y-129423999D02*
G01*
X140540486Y-129469056D01*
X140544951Y-129477820D01*
X140669890Y-129649786D01*
X140820213Y-129800109D01*
X140992179Y-129925048D01*
X140992181Y-129925049D01*
X140992184Y-129925051D01*
X141001493Y-129929794D01*
X141052290Y-129977766D01*
X141069087Y-130045587D01*
X141046552Y-130111722D01*
X141001505Y-130150760D01*
X140992446Y-130155376D01*
X140992440Y-130155380D01*
X140938282Y-130194727D01*
X140938282Y-130194728D01*
X141570591Y-130827037D01*
X141507007Y-130844075D01*
X141392993Y-130909901D01*
X141299901Y-131002993D01*
X141234075Y-131117007D01*
X141217037Y-131180591D01*
X140584728Y-130548282D01*
X140584727Y-130548282D01*
X140545380Y-130602440D01*
X140540483Y-130612051D01*
X140492506Y-130662845D01*
X140424684Y-130679638D01*
X140358550Y-130657098D01*
X140319516Y-130612048D01*
X140314626Y-130602452D01*
X140275270Y-130548282D01*
X140275269Y-130548282D01*
X139642962Y-131180590D01*
X139625925Y-131117007D01*
X139560099Y-131002993D01*
X139467007Y-130909901D01*
X139352993Y-130844075D01*
X139289409Y-130827037D01*
X139921716Y-130194728D01*
X139867547Y-130155373D01*
X139867547Y-130155372D01*
X139858500Y-130150763D01*
X139807706Y-130102788D01*
X139790912Y-130034966D01*
X139813451Y-129968832D01*
X139858508Y-129929793D01*
X139867816Y-129925051D01*
X139986728Y-129838657D01*
X140039786Y-129800109D01*
X140039788Y-129800106D01*
X140039792Y-129800104D01*
X140190104Y-129649792D01*
X140190106Y-129649788D01*
X140190109Y-129649786D01*
X140315048Y-129477820D01*
X140315047Y-129477820D01*
X140315051Y-129477816D01*
X140319514Y-129469054D01*
X140367488Y-129418259D01*
X140435308Y-129401463D01*
X140501444Y-129423999D01*
G37*
%TD.AperFunction*%
%TA.AperFunction,Conductor*%
G36*
X142920397Y-129628851D02*
G01*
X142951686Y-129678772D01*
X142955186Y-129689334D01*
X143047288Y-129838656D01*
X143171344Y-129962712D01*
X143320666Y-130054814D01*
X143392770Y-130078707D01*
X143450214Y-130118478D01*
X143477038Y-130182994D01*
X143477197Y-130193643D01*
X144110591Y-130827037D01*
X144047007Y-130844075D01*
X143932993Y-130909901D01*
X143839901Y-131002993D01*
X143774075Y-131117007D01*
X143757037Y-131180591D01*
X143124728Y-130548282D01*
X143124727Y-130548282D01*
X143085380Y-130602440D01*
X143080483Y-130612051D01*
X143032506Y-130662845D01*
X142964684Y-130679638D01*
X142898550Y-130657098D01*
X142859516Y-130612048D01*
X142854626Y-130602452D01*
X142815270Y-130548282D01*
X142182962Y-131180590D01*
X142165925Y-131117007D01*
X142100099Y-131002993D01*
X142007007Y-130909901D01*
X141892993Y-130844075D01*
X141829409Y-130827037D01*
X142461716Y-130194728D01*
X142407547Y-130155373D01*
X142407547Y-130155372D01*
X142398500Y-130150763D01*
X142347706Y-130102788D01*
X142330912Y-130034966D01*
X142353451Y-129968832D01*
X142398508Y-129929793D01*
X142407816Y-129925051D01*
X142526728Y-129838657D01*
X142579786Y-129800109D01*
X142579788Y-129800106D01*
X142579792Y-129800104D01*
X142730104Y-129649792D01*
X142733660Y-129644896D01*
X142788987Y-129602230D01*
X142858600Y-129596248D01*
X142920397Y-129628851D01*
G37*
%TD.AperFunction*%
%TA.AperFunction,Conductor*%
G36*
X84621444Y-129423999D02*
G01*
X84660486Y-129469056D01*
X84664951Y-129477820D01*
X84789890Y-129649786D01*
X84940213Y-129800109D01*
X85112182Y-129925050D01*
X85120946Y-129929516D01*
X85171742Y-129977491D01*
X85188536Y-130045312D01*
X85165998Y-130111447D01*
X85120946Y-130150484D01*
X85112182Y-130154949D01*
X84940213Y-130279890D01*
X84789890Y-130430213D01*
X84664949Y-130602182D01*
X84660202Y-130611499D01*
X84612227Y-130662293D01*
X84544405Y-130679087D01*
X84478271Y-130656548D01*
X84439234Y-130611495D01*
X84434626Y-130602452D01*
X84395270Y-130548282D01*
X84395269Y-130548282D01*
X83762962Y-131180590D01*
X83745925Y-131117007D01*
X83680099Y-131002993D01*
X83587007Y-130909901D01*
X83472993Y-130844075D01*
X83409409Y-130827037D01*
X84041716Y-130194728D01*
X83987547Y-130155373D01*
X83987547Y-130155372D01*
X83978500Y-130150763D01*
X83927706Y-130102788D01*
X83910912Y-130034966D01*
X83933451Y-129968832D01*
X83978508Y-129929793D01*
X83987816Y-129925051D01*
X84106728Y-129838657D01*
X84159786Y-129800109D01*
X84159788Y-129800106D01*
X84159792Y-129800104D01*
X84310104Y-129649792D01*
X84310106Y-129649788D01*
X84310109Y-129649786D01*
X84435048Y-129477820D01*
X84435047Y-129477820D01*
X84435051Y-129477816D01*
X84439514Y-129469054D01*
X84487488Y-129418259D01*
X84555308Y-129401463D01*
X84621444Y-129423999D01*
G37*
%TD.AperFunction*%
%TA.AperFunction,Conductor*%
G36*
X89701444Y-129423999D02*
G01*
X89740486Y-129469056D01*
X89744951Y-129477820D01*
X89869890Y-129649786D01*
X90020213Y-129800109D01*
X90192182Y-129925050D01*
X90200946Y-129929516D01*
X90251742Y-129977491D01*
X90268536Y-130045312D01*
X90245998Y-130111447D01*
X90200946Y-130150484D01*
X90192182Y-130154949D01*
X90020213Y-130279890D01*
X89869890Y-130430213D01*
X89744949Y-130602182D01*
X89740202Y-130611499D01*
X89692227Y-130662293D01*
X89624405Y-130679087D01*
X89558271Y-130656548D01*
X89519234Y-130611495D01*
X89514626Y-130602452D01*
X89475270Y-130548282D01*
X89475269Y-130548282D01*
X88842962Y-131180590D01*
X88825925Y-131117007D01*
X88760099Y-131002993D01*
X88667007Y-130909901D01*
X88552993Y-130844075D01*
X88489409Y-130827037D01*
X89121716Y-130194728D01*
X89067547Y-130155373D01*
X89067547Y-130155372D01*
X89058500Y-130150763D01*
X89007706Y-130102788D01*
X88990912Y-130034966D01*
X89013451Y-129968832D01*
X89058508Y-129929793D01*
X89067816Y-129925051D01*
X89186728Y-129838657D01*
X89239786Y-129800109D01*
X89239788Y-129800106D01*
X89239792Y-129800104D01*
X89390104Y-129649792D01*
X89390106Y-129649788D01*
X89390109Y-129649786D01*
X89515048Y-129477820D01*
X89515047Y-129477820D01*
X89515051Y-129477816D01*
X89519514Y-129469054D01*
X89567488Y-129418259D01*
X89635308Y-129401463D01*
X89701444Y-129423999D01*
G37*
%TD.AperFunction*%
%TA.AperFunction,Conductor*%
G36*
X99861444Y-129423999D02*
G01*
X99900486Y-129469056D01*
X99904951Y-129477820D01*
X100029890Y-129649786D01*
X100180213Y-129800109D01*
X100352182Y-129925050D01*
X100360946Y-129929516D01*
X100411742Y-129977491D01*
X100428536Y-130045312D01*
X100405998Y-130111447D01*
X100360946Y-130150484D01*
X100352182Y-130154949D01*
X100180213Y-130279890D01*
X100029890Y-130430213D01*
X99904949Y-130602182D01*
X99900202Y-130611499D01*
X99852227Y-130662293D01*
X99784405Y-130679087D01*
X99718271Y-130656548D01*
X99679234Y-130611495D01*
X99674626Y-130602452D01*
X99635270Y-130548282D01*
X99635269Y-130548282D01*
X99002962Y-131180590D01*
X98985925Y-131117007D01*
X98920099Y-131002993D01*
X98827007Y-130909901D01*
X98712993Y-130844075D01*
X98649408Y-130827037D01*
X99281716Y-130194728D01*
X99227547Y-130155373D01*
X99227547Y-130155372D01*
X99218500Y-130150763D01*
X99167706Y-130102788D01*
X99150912Y-130034966D01*
X99173451Y-129968832D01*
X99218508Y-129929793D01*
X99227816Y-129925051D01*
X99346728Y-129838657D01*
X99399786Y-129800109D01*
X99399788Y-129800106D01*
X99399792Y-129800104D01*
X99550104Y-129649792D01*
X99550106Y-129649788D01*
X99550109Y-129649786D01*
X99675048Y-129477820D01*
X99675047Y-129477820D01*
X99675051Y-129477816D01*
X99679514Y-129469054D01*
X99727488Y-129418259D01*
X99795308Y-129401463D01*
X99861444Y-129423999D01*
G37*
%TD.AperFunction*%
%TA.AperFunction,Conductor*%
G36*
X115101444Y-129423999D02*
G01*
X115140486Y-129469056D01*
X115144951Y-129477820D01*
X115269890Y-129649786D01*
X115420213Y-129800109D01*
X115592182Y-129925050D01*
X115600946Y-129929516D01*
X115651742Y-129977491D01*
X115668536Y-130045312D01*
X115645998Y-130111447D01*
X115600946Y-130150484D01*
X115592182Y-130154949D01*
X115420213Y-130279890D01*
X115269890Y-130430213D01*
X115144949Y-130602182D01*
X115140202Y-130611499D01*
X115092227Y-130662293D01*
X115024405Y-130679087D01*
X114958271Y-130656548D01*
X114919234Y-130611495D01*
X114914626Y-130602452D01*
X114875270Y-130548282D01*
X114875269Y-130548282D01*
X114242962Y-131180590D01*
X114225925Y-131117007D01*
X114160099Y-131002993D01*
X114067007Y-130909901D01*
X113952993Y-130844075D01*
X113889409Y-130827037D01*
X114521716Y-130194728D01*
X114467547Y-130155373D01*
X114467547Y-130155372D01*
X114458500Y-130150763D01*
X114407706Y-130102788D01*
X114390912Y-130034966D01*
X114413451Y-129968832D01*
X114458508Y-129929793D01*
X114467816Y-129925051D01*
X114586728Y-129838657D01*
X114639786Y-129800109D01*
X114639788Y-129800106D01*
X114639792Y-129800104D01*
X114790104Y-129649792D01*
X114790106Y-129649788D01*
X114790109Y-129649786D01*
X114915048Y-129477820D01*
X114915047Y-129477820D01*
X114915051Y-129477816D01*
X114919514Y-129469054D01*
X114967488Y-129418259D01*
X115035308Y-129401463D01*
X115101444Y-129423999D01*
G37*
%TD.AperFunction*%
%TA.AperFunction,Conductor*%
G36*
X120181444Y-129423999D02*
G01*
X120220486Y-129469056D01*
X120224951Y-129477820D01*
X120349890Y-129649786D01*
X120500213Y-129800109D01*
X120672182Y-129925050D01*
X120680946Y-129929516D01*
X120731742Y-129977491D01*
X120748536Y-130045312D01*
X120725998Y-130111447D01*
X120680946Y-130150484D01*
X120672182Y-130154949D01*
X120500213Y-130279890D01*
X120349890Y-130430213D01*
X120224949Y-130602182D01*
X120220202Y-130611499D01*
X120172227Y-130662293D01*
X120104405Y-130679087D01*
X120038271Y-130656548D01*
X119999234Y-130611495D01*
X119994626Y-130602452D01*
X119955270Y-130548282D01*
X119955269Y-130548282D01*
X119322962Y-131180590D01*
X119305925Y-131117007D01*
X119240099Y-131002993D01*
X119147007Y-130909901D01*
X119032993Y-130844075D01*
X118969409Y-130827037D01*
X119601716Y-130194728D01*
X119547547Y-130155373D01*
X119547547Y-130155372D01*
X119538500Y-130150763D01*
X119487706Y-130102788D01*
X119470912Y-130034966D01*
X119493451Y-129968832D01*
X119538508Y-129929793D01*
X119547816Y-129925051D01*
X119666728Y-129838657D01*
X119719786Y-129800109D01*
X119719788Y-129800106D01*
X119719792Y-129800104D01*
X119870104Y-129649792D01*
X119870106Y-129649788D01*
X119870109Y-129649786D01*
X119995048Y-129477820D01*
X119995047Y-129477820D01*
X119995051Y-129477816D01*
X119999514Y-129469054D01*
X120047488Y-129418259D01*
X120115308Y-129401463D01*
X120181444Y-129423999D01*
G37*
%TD.AperFunction*%
%TA.AperFunction,Conductor*%
G36*
X131254434Y-119847313D02*
G01*
X131310367Y-119889185D01*
X131334784Y-119954649D01*
X131335100Y-119963495D01*
X131335100Y-122994302D01*
X131315415Y-123061341D01*
X131298781Y-123081983D01*
X126944522Y-127436241D01*
X126883199Y-127469726D01*
X126818523Y-127466491D01*
X126776245Y-127452754D01*
X126632581Y-127430000D01*
X126566287Y-127419500D01*
X126353713Y-127419500D01*
X126305042Y-127427208D01*
X126143760Y-127452753D01*
X126143757Y-127452754D01*
X125946679Y-127516789D01*
X125941585Y-127518444D01*
X125752179Y-127614951D01*
X125580213Y-127739890D01*
X125429890Y-127890213D01*
X125304949Y-128062182D01*
X125300202Y-128071499D01*
X125252227Y-128122293D01*
X125184405Y-128139087D01*
X125118271Y-128116548D01*
X125079234Y-128071495D01*
X125074626Y-128062452D01*
X125035270Y-128008282D01*
X125035269Y-128008282D01*
X124402962Y-128640590D01*
X124385925Y-128577007D01*
X124320099Y-128462993D01*
X124227007Y-128369901D01*
X124112993Y-128304075D01*
X124049408Y-128287037D01*
X124681716Y-127654728D01*
X124627550Y-127615375D01*
X124438217Y-127518904D01*
X124236129Y-127453242D01*
X124026246Y-127420000D01*
X123878595Y-127420000D01*
X123811556Y-127400315D01*
X123765801Y-127347511D01*
X123755857Y-127278353D01*
X123784882Y-127214797D01*
X123790900Y-127208333D01*
X131123421Y-119875812D01*
X131184742Y-119842329D01*
X131254434Y-119847313D01*
G37*
%TD.AperFunction*%
%TA.AperFunction,Conductor*%
G36*
X121907657Y-94609482D02*
G01*
X121939955Y-94611792D01*
X121942156Y-94613440D01*
X121944890Y-94613754D01*
X121969961Y-94634255D01*
X121995888Y-94653664D01*
X121997500Y-94656774D01*
X121998979Y-94657983D01*
X122014552Y-94689655D01*
X122033644Y-94748416D01*
X122130148Y-94937814D01*
X122130149Y-94937816D01*
X122187618Y-95016917D01*
X122211097Y-95082723D01*
X122195271Y-95150777D01*
X122174980Y-95177482D01*
X100691286Y-116661178D01*
X100579481Y-116772982D01*
X100579477Y-116772987D01*
X100536046Y-116848214D01*
X100536046Y-116848215D01*
X100500423Y-116909914D01*
X100500423Y-116909915D01*
X100459499Y-117062643D01*
X100459499Y-117062645D01*
X100459499Y-117230746D01*
X100459500Y-117230759D01*
X100459500Y-127484281D01*
X100439815Y-127551320D01*
X100391795Y-127594765D01*
X100352185Y-127614947D01*
X100352184Y-127614948D01*
X100180213Y-127739890D01*
X100029890Y-127890213D01*
X99904949Y-128062182D01*
X99900484Y-128070946D01*
X99852509Y-128121742D01*
X99784688Y-128138536D01*
X99718553Y-128115998D01*
X99679516Y-128070946D01*
X99675050Y-128062182D01*
X99550109Y-127890213D01*
X99399786Y-127739890D01*
X99227815Y-127614948D01*
X99227814Y-127614947D01*
X99188205Y-127594765D01*
X99137409Y-127546791D01*
X99120500Y-127484281D01*
X99120500Y-117380096D01*
X99140185Y-117313057D01*
X99156814Y-117292420D01*
X121808942Y-94640291D01*
X121811354Y-94638974D01*
X121812775Y-94636619D01*
X121841838Y-94622328D01*
X121870263Y-94606808D01*
X121873006Y-94607004D01*
X121875476Y-94605790D01*
X121907657Y-94609482D01*
G37*
%TD.AperFunction*%
%TA.AperFunction,Conductor*%
G36*
X121979102Y-101200185D02*
G01*
X122024857Y-101252989D01*
X122034801Y-101322147D01*
X122029994Y-101342818D01*
X121967953Y-101533759D01*
X121934700Y-101743713D01*
X121934700Y-101956286D01*
X121967953Y-102166239D01*
X121967953Y-102166241D01*
X121967954Y-102166243D01*
X122015122Y-102311412D01*
X122033644Y-102368414D01*
X122130151Y-102557820D01*
X122255090Y-102729786D01*
X122405413Y-102880109D01*
X122577382Y-103005050D01*
X122586146Y-103009516D01*
X122636942Y-103057491D01*
X122653736Y-103125312D01*
X122631198Y-103191447D01*
X122586146Y-103230484D01*
X122577382Y-103234949D01*
X122405413Y-103359890D01*
X122255090Y-103510213D01*
X122130151Y-103682179D01*
X122033644Y-103871585D01*
X121967953Y-104073760D01*
X121934700Y-104283713D01*
X121934700Y-104496286D01*
X121967953Y-104706239D01*
X122033644Y-104908414D01*
X122130151Y-105097820D01*
X122255090Y-105269786D01*
X122405413Y-105420109D01*
X122577382Y-105545050D01*
X122586146Y-105549516D01*
X122636942Y-105597491D01*
X122653736Y-105665312D01*
X122631198Y-105731447D01*
X122586146Y-105770484D01*
X122577382Y-105774949D01*
X122405413Y-105899890D01*
X122255090Y-106050213D01*
X122130151Y-106222179D01*
X122033644Y-106411585D01*
X121967953Y-106613760D01*
X121958437Y-106673844D01*
X121934700Y-106823713D01*
X121934700Y-107036287D01*
X121967954Y-107246243D01*
X122028000Y-107431046D01*
X122033644Y-107448414D01*
X122130151Y-107637820D01*
X122255090Y-107809786D01*
X122405413Y-107960109D01*
X122577379Y-108085048D01*
X122577381Y-108085049D01*
X122577384Y-108085051D01*
X122586693Y-108089794D01*
X122637490Y-108137766D01*
X122654287Y-108205587D01*
X122631752Y-108271722D01*
X122586705Y-108310760D01*
X122577646Y-108315376D01*
X122577640Y-108315380D01*
X122523482Y-108354727D01*
X122523482Y-108354728D01*
X123155791Y-108987037D01*
X123092207Y-109004075D01*
X122978193Y-109069901D01*
X122885101Y-109162993D01*
X122819275Y-109277007D01*
X122802237Y-109340591D01*
X122169928Y-108708282D01*
X122169927Y-108708282D01*
X122130580Y-108762439D01*
X122034104Y-108951782D01*
X121968442Y-109153869D01*
X121968442Y-109153872D01*
X121935200Y-109363753D01*
X121935200Y-109576246D01*
X121968442Y-109786127D01*
X121968442Y-109786130D01*
X122034104Y-109988217D01*
X122130575Y-110177550D01*
X122169928Y-110231716D01*
X122802237Y-109599408D01*
X122819275Y-109662993D01*
X122885101Y-109777007D01*
X122978193Y-109870099D01*
X123092207Y-109935925D01*
X123155790Y-109952962D01*
X122523482Y-110585269D01*
X122523482Y-110585270D01*
X122577649Y-110624624D01*
X122766982Y-110721095D01*
X122969067Y-110786756D01*
X122991943Y-110790379D01*
X123055078Y-110820307D01*
X123092011Y-110879618D01*
X123091015Y-110949480D01*
X123060229Y-111000534D01*
X106624522Y-127436241D01*
X106563199Y-127469726D01*
X106498523Y-127466491D01*
X106456245Y-127452754D01*
X106312581Y-127430000D01*
X106246287Y-127419500D01*
X106033713Y-127419500D01*
X105985042Y-127427208D01*
X105823760Y-127452753D01*
X105823757Y-127452754D01*
X105626679Y-127516789D01*
X105621582Y-127518445D01*
X105484985Y-127588044D01*
X105416316Y-127600940D01*
X105351576Y-127574663D01*
X105311319Y-127517557D01*
X105307073Y-127501749D01*
X105304737Y-127490003D01*
X105288191Y-127450056D01*
X105244397Y-127344327D01*
X105244390Y-127344314D01*
X105156398Y-127212625D01*
X105135520Y-127145947D01*
X105135500Y-127143734D01*
X105135500Y-117590083D01*
X105155185Y-117523044D01*
X105171819Y-117502402D01*
X121457402Y-101216819D01*
X121518725Y-101183334D01*
X121545083Y-101180500D01*
X121912063Y-101180500D01*
X121979102Y-101200185D01*
G37*
%TD.AperFunction*%
%TA.AperFunction,Conductor*%
G36*
X121947618Y-88597085D02*
G01*
X121993373Y-88649889D01*
X122003317Y-88719047D01*
X121998512Y-88739707D01*
X121967954Y-88833757D01*
X121934700Y-89043713D01*
X121934700Y-89256287D01*
X121967954Y-89466243D01*
X122027746Y-89650264D01*
X122033644Y-89668414D01*
X122130151Y-89857820D01*
X122255090Y-90029786D01*
X122405413Y-90180109D01*
X122577382Y-90305050D01*
X122586146Y-90309516D01*
X122636942Y-90357491D01*
X122653736Y-90425312D01*
X122631198Y-90491447D01*
X122586146Y-90530484D01*
X122577382Y-90534949D01*
X122405413Y-90659890D01*
X122255090Y-90810213D01*
X122130151Y-90982179D01*
X122033644Y-91171585D01*
X121967953Y-91373760D01*
X121934700Y-91583713D01*
X121934700Y-91796287D01*
X121967954Y-92006243D01*
X122033643Y-92208412D01*
X122099803Y-92338259D01*
X122130151Y-92397819D01*
X122161654Y-92441180D01*
X122185134Y-92506986D01*
X122169308Y-92575040D01*
X122149017Y-92601746D01*
X98151286Y-116599478D01*
X98061981Y-116688783D01*
X98000658Y-116722268D01*
X97930966Y-116717284D01*
X97875033Y-116675412D01*
X97850616Y-116609948D01*
X97850300Y-116601102D01*
X97850300Y-114345796D01*
X97869985Y-114278757D01*
X97886614Y-114258120D01*
X101612511Y-110532222D01*
X101673832Y-110498739D01*
X101743524Y-110503723D01*
X101773075Y-110519587D01*
X101917642Y-110624620D01*
X102106982Y-110721095D01*
X102309070Y-110786757D01*
X102518954Y-110820000D01*
X102731446Y-110820000D01*
X102941327Y-110786757D01*
X102941330Y-110786757D01*
X103143417Y-110721095D01*
X103332754Y-110624622D01*
X103386916Y-110585270D01*
X103386917Y-110585270D01*
X102754609Y-109952962D01*
X102818193Y-109935925D01*
X102932207Y-109870099D01*
X103025299Y-109777007D01*
X103091125Y-109662993D01*
X103108162Y-109599408D01*
X103740470Y-110231717D01*
X103740470Y-110231716D01*
X103779822Y-110177554D01*
X103876295Y-109988217D01*
X103941957Y-109786130D01*
X103941957Y-109786127D01*
X103975200Y-109576246D01*
X103975200Y-109363753D01*
X103941957Y-109153872D01*
X103941957Y-109153869D01*
X103876295Y-108951782D01*
X103779824Y-108762449D01*
X103740470Y-108708282D01*
X103740469Y-108708282D01*
X103108162Y-109340590D01*
X103091125Y-109277007D01*
X103025299Y-109162993D01*
X102932207Y-109069901D01*
X102818193Y-109004075D01*
X102754607Y-108987036D01*
X103386916Y-108354728D01*
X103332747Y-108315373D01*
X103332747Y-108315372D01*
X103323700Y-108310763D01*
X103272906Y-108262788D01*
X103256112Y-108194966D01*
X103278651Y-108128832D01*
X103323708Y-108089793D01*
X103333016Y-108085051D01*
X103412207Y-108027515D01*
X103504986Y-107960109D01*
X103504988Y-107960106D01*
X103504992Y-107960104D01*
X103655304Y-107809792D01*
X103655306Y-107809788D01*
X103655309Y-107809786D01*
X103780248Y-107637820D01*
X103780247Y-107637820D01*
X103780251Y-107637816D01*
X103876757Y-107448412D01*
X103942446Y-107246243D01*
X103975700Y-107036287D01*
X103975700Y-106823713D01*
X103942446Y-106613757D01*
X103876757Y-106411588D01*
X103780251Y-106222184D01*
X103780249Y-106222181D01*
X103780248Y-106222179D01*
X103655309Y-106050213D01*
X103504986Y-105899890D01*
X103333020Y-105774951D01*
X103332127Y-105774496D01*
X103324254Y-105770485D01*
X103273459Y-105722512D01*
X103256663Y-105654692D01*
X103279199Y-105588556D01*
X103324254Y-105549515D01*
X103333016Y-105545051D01*
X103370252Y-105517998D01*
X103504986Y-105420109D01*
X103504988Y-105420106D01*
X103504992Y-105420104D01*
X103655304Y-105269792D01*
X103655306Y-105269788D01*
X103655309Y-105269786D01*
X103780248Y-105097820D01*
X103780250Y-105097817D01*
X103780251Y-105097816D01*
X103876757Y-104908412D01*
X103942446Y-104706243D01*
X103975700Y-104496287D01*
X103975700Y-104283713D01*
X103942446Y-104073757D01*
X103880406Y-103882818D01*
X103878411Y-103812977D01*
X103914491Y-103753144D01*
X103977192Y-103722316D01*
X103998337Y-103720500D01*
X105987231Y-103720500D01*
X105987247Y-103720501D01*
X105994843Y-103720501D01*
X106152954Y-103720501D01*
X106152957Y-103720501D01*
X106305685Y-103679577D01*
X106355804Y-103650639D01*
X106442616Y-103600520D01*
X106554420Y-103488716D01*
X106554420Y-103488714D01*
X106564628Y-103478507D01*
X106564629Y-103478504D01*
X121429416Y-88613719D01*
X121490739Y-88580234D01*
X121517097Y-88577400D01*
X121880579Y-88577400D01*
X121947618Y-88597085D01*
G37*
%TD.AperFunction*%
%TA.AperFunction,Conductor*%
G36*
X98820104Y-104953743D02*
G01*
X98876037Y-104995615D01*
X98887253Y-105013628D01*
X98899803Y-105038259D01*
X98930149Y-105097817D01*
X99055090Y-105269786D01*
X99205413Y-105420109D01*
X99377382Y-105545050D01*
X99386146Y-105549516D01*
X99436942Y-105597491D01*
X99453736Y-105665312D01*
X99431198Y-105731447D01*
X99386146Y-105770484D01*
X99377382Y-105774949D01*
X99205413Y-105899890D01*
X99055090Y-106050213D01*
X98930151Y-106222179D01*
X98833644Y-106411585D01*
X98767953Y-106613760D01*
X98758437Y-106673844D01*
X98734700Y-106823713D01*
X98734700Y-107036287D01*
X98767954Y-107246243D01*
X98828000Y-107431046D01*
X98833644Y-107448414D01*
X98930151Y-107637820D01*
X99055090Y-107809786D01*
X99205413Y-107960109D01*
X99377379Y-108085048D01*
X99377381Y-108085049D01*
X99377384Y-108085051D01*
X99386693Y-108089794D01*
X99437490Y-108137766D01*
X99454287Y-108205587D01*
X99431752Y-108271722D01*
X99386705Y-108310760D01*
X99377646Y-108315376D01*
X99377640Y-108315380D01*
X99323482Y-108354727D01*
X99323482Y-108354728D01*
X99955791Y-108987037D01*
X99892207Y-109004075D01*
X99778193Y-109069901D01*
X99685101Y-109162993D01*
X99619275Y-109277007D01*
X99602237Y-109340591D01*
X98969928Y-108708282D01*
X98969927Y-108708282D01*
X98930580Y-108762439D01*
X98834104Y-108951782D01*
X98768442Y-109153869D01*
X98768442Y-109153872D01*
X98735200Y-109363753D01*
X98735200Y-109576246D01*
X98768442Y-109786127D01*
X98768442Y-109786130D01*
X98834104Y-109988217D01*
X98930575Y-110177550D01*
X98969928Y-110231716D01*
X99602237Y-109599408D01*
X99619275Y-109662993D01*
X99685101Y-109777007D01*
X99778193Y-109870099D01*
X99892207Y-109935925D01*
X99955789Y-109952962D01*
X99323482Y-110585269D01*
X99323482Y-110585270D01*
X99377649Y-110624624D01*
X99519705Y-110697006D01*
X99570501Y-110744981D01*
X99587296Y-110812802D01*
X99564758Y-110878937D01*
X99551091Y-110895172D01*
X96881086Y-113565178D01*
X96792181Y-113654083D01*
X96730858Y-113687568D01*
X96661166Y-113682584D01*
X96605233Y-113640712D01*
X96580816Y-113575248D01*
X96580500Y-113566402D01*
X96580500Y-107142196D01*
X96600185Y-107075157D01*
X96616814Y-107054520D01*
X98689091Y-104982242D01*
X98750412Y-104948759D01*
X98820104Y-104953743D01*
G37*
%TD.AperFunction*%
%TA.AperFunction,Conductor*%
G36*
X124626644Y-107583999D02*
G01*
X124665686Y-107629056D01*
X124670151Y-107637820D01*
X124795090Y-107809786D01*
X124945413Y-107960109D01*
X125117379Y-108085048D01*
X125117381Y-108085049D01*
X125117384Y-108085051D01*
X125126693Y-108089794D01*
X125177490Y-108137766D01*
X125194287Y-108205587D01*
X125171752Y-108271722D01*
X125126705Y-108310760D01*
X125117646Y-108315376D01*
X125117640Y-108315380D01*
X125063482Y-108354727D01*
X125063482Y-108354728D01*
X125695791Y-108987037D01*
X125632207Y-109004075D01*
X125518193Y-109069901D01*
X125425101Y-109162993D01*
X125359275Y-109277007D01*
X125342237Y-109340591D01*
X124709928Y-108708282D01*
X124709927Y-108708282D01*
X124670580Y-108762440D01*
X124665683Y-108772051D01*
X124617706Y-108822845D01*
X124549884Y-108839638D01*
X124483750Y-108817098D01*
X124444716Y-108772048D01*
X124439826Y-108762452D01*
X124400470Y-108708282D01*
X124400469Y-108708282D01*
X123768162Y-109340590D01*
X123751125Y-109277007D01*
X123685299Y-109162993D01*
X123592207Y-109069901D01*
X123478193Y-109004075D01*
X123414609Y-108987037D01*
X124046916Y-108354728D01*
X123992747Y-108315373D01*
X123992747Y-108315372D01*
X123983700Y-108310763D01*
X123932906Y-108262788D01*
X123916112Y-108194966D01*
X123938651Y-108128832D01*
X123983708Y-108089793D01*
X123993016Y-108085051D01*
X124072207Y-108027515D01*
X124164986Y-107960109D01*
X124164988Y-107960106D01*
X124164992Y-107960104D01*
X124315304Y-107809792D01*
X124315306Y-107809788D01*
X124315309Y-107809786D01*
X124440248Y-107637820D01*
X124440247Y-107637820D01*
X124440251Y-107637816D01*
X124444714Y-107629054D01*
X124492688Y-107578259D01*
X124560508Y-107561463D01*
X124626644Y-107583999D01*
G37*
%TD.AperFunction*%
%TA.AperFunction,Conductor*%
G36*
X127806034Y-95133514D02*
G01*
X127861967Y-95175386D01*
X127886384Y-95240850D01*
X127886700Y-95249696D01*
X127886700Y-108474102D01*
X127867015Y-108541141D01*
X127850381Y-108561783D01*
X127313570Y-109098594D01*
X127252247Y-109132079D01*
X127182555Y-109127095D01*
X127126622Y-109085223D01*
X127107958Y-109049231D01*
X127076295Y-108951782D01*
X126979824Y-108762449D01*
X126940470Y-108708282D01*
X126940469Y-108708282D01*
X126308162Y-109340589D01*
X126291125Y-109277007D01*
X126225299Y-109162993D01*
X126132207Y-109069901D01*
X126018193Y-109004075D01*
X125954609Y-108987037D01*
X126586916Y-108354728D01*
X126532747Y-108315373D01*
X126532747Y-108315372D01*
X126523700Y-108310763D01*
X126472906Y-108262788D01*
X126456112Y-108194966D01*
X126478651Y-108128832D01*
X126523708Y-108089793D01*
X126533016Y-108085051D01*
X126612207Y-108027515D01*
X126704986Y-107960109D01*
X126704988Y-107960106D01*
X126704992Y-107960104D01*
X126855304Y-107809792D01*
X126855306Y-107809788D01*
X126855309Y-107809786D01*
X126980248Y-107637820D01*
X126980247Y-107637820D01*
X126980251Y-107637816D01*
X127076757Y-107448412D01*
X127142446Y-107246243D01*
X127175700Y-107036287D01*
X127175700Y-106823713D01*
X127142446Y-106613757D01*
X127076757Y-106411588D01*
X126980251Y-106222184D01*
X126980249Y-106222181D01*
X126980248Y-106222179D01*
X126855309Y-106050213D01*
X126704986Y-105899890D01*
X126533020Y-105774951D01*
X126532127Y-105774496D01*
X126524254Y-105770485D01*
X126473459Y-105722512D01*
X126456663Y-105654692D01*
X126479199Y-105588556D01*
X126524254Y-105549515D01*
X126533016Y-105545051D01*
X126570252Y-105517998D01*
X126704986Y-105420109D01*
X126704988Y-105420106D01*
X126704992Y-105420104D01*
X126855304Y-105269792D01*
X126855306Y-105269788D01*
X126855309Y-105269786D01*
X126980248Y-105097820D01*
X126980250Y-105097817D01*
X126980251Y-105097816D01*
X127076757Y-104908412D01*
X127142446Y-104706243D01*
X127175700Y-104496287D01*
X127175700Y-104283713D01*
X127142446Y-104073757D01*
X127076757Y-103871588D01*
X126980251Y-103682184D01*
X126980249Y-103682181D01*
X126980248Y-103682179D01*
X126855309Y-103510213D01*
X126704986Y-103359890D01*
X126533020Y-103234951D01*
X126532315Y-103234591D01*
X126524254Y-103230485D01*
X126473459Y-103182512D01*
X126456663Y-103114692D01*
X126479199Y-103048556D01*
X126524254Y-103009515D01*
X126533016Y-103005051D01*
X126554989Y-102989086D01*
X126704986Y-102880109D01*
X126704988Y-102880106D01*
X126704992Y-102880104D01*
X126855304Y-102729792D01*
X126855306Y-102729788D01*
X126855309Y-102729786D01*
X126980248Y-102557820D01*
X126980249Y-102557819D01*
X126980251Y-102557816D01*
X127076757Y-102368412D01*
X127142446Y-102166243D01*
X127175700Y-101956287D01*
X127175700Y-101743713D01*
X127142446Y-101533757D01*
X127076757Y-101331588D01*
X126980251Y-101142184D01*
X126980249Y-101142181D01*
X126980248Y-101142179D01*
X126855309Y-100970213D01*
X126704986Y-100819890D01*
X126533020Y-100694951D01*
X126532315Y-100694591D01*
X126524254Y-100690485D01*
X126473459Y-100642512D01*
X126456663Y-100574692D01*
X126479199Y-100508556D01*
X126524254Y-100469515D01*
X126533016Y-100465051D01*
X126665136Y-100369061D01*
X126704986Y-100340109D01*
X126704988Y-100340106D01*
X126704992Y-100340104D01*
X126855304Y-100189792D01*
X126855306Y-100189788D01*
X126855309Y-100189786D01*
X126980248Y-100017820D01*
X126980247Y-100017820D01*
X126980251Y-100017816D01*
X127076757Y-99828412D01*
X127142446Y-99626243D01*
X127175700Y-99416287D01*
X127175700Y-99203713D01*
X127142446Y-98993757D01*
X127076757Y-98791588D01*
X126980251Y-98602184D01*
X126980249Y-98602181D01*
X126980248Y-98602179D01*
X126855309Y-98430213D01*
X126704986Y-98279890D01*
X126533020Y-98154951D01*
X126532315Y-98154591D01*
X126524254Y-98150485D01*
X126473459Y-98102512D01*
X126456663Y-98034692D01*
X126479199Y-97968556D01*
X126524254Y-97929515D01*
X126533016Y-97925051D01*
X126554989Y-97909086D01*
X126704986Y-97800109D01*
X126704988Y-97800106D01*
X126704992Y-97800104D01*
X126855304Y-97649792D01*
X126855306Y-97649788D01*
X126855309Y-97649786D01*
X126980248Y-97477820D01*
X126980247Y-97477820D01*
X126980251Y-97477816D01*
X127076757Y-97288412D01*
X127142446Y-97086243D01*
X127175700Y-96876287D01*
X127175700Y-96663713D01*
X127142446Y-96453757D01*
X127076757Y-96251588D01*
X126980251Y-96062184D01*
X126980247Y-96062179D01*
X126970901Y-96049315D01*
X126956067Y-96028898D01*
X126944618Y-95996813D01*
X126932702Y-95964878D01*
X126932899Y-95963969D01*
X126932587Y-95963094D01*
X126940311Y-95929873D01*
X126947544Y-95896603D01*
X126948274Y-95895627D01*
X126948411Y-95895040D01*
X126968690Y-95868345D01*
X126971953Y-95865080D01*
X127675020Y-95162014D01*
X127736342Y-95128530D01*
X127806034Y-95133514D01*
G37*
%TD.AperFunction*%
%TA.AperFunction,Conductor*%
G36*
X153577095Y-59299071D02*
G01*
X153643984Y-59319261D01*
X153689338Y-59372409D01*
X153700158Y-59422907D01*
X153799840Y-136875840D01*
X153780242Y-136942905D01*
X153727497Y-136988728D01*
X153675840Y-137000000D01*
X75323681Y-137000000D01*
X75256642Y-136980315D01*
X75210887Y-136927511D01*
X75199681Y-136876320D01*
X75188074Y-132378331D01*
X75185031Y-131199201D01*
X75178488Y-128663713D01*
X81929500Y-128663713D01*
X81929500Y-128876286D01*
X81962753Y-129086239D01*
X82028444Y-129288414D01*
X82124951Y-129477820D01*
X82249890Y-129649786D01*
X82400213Y-129800109D01*
X82572179Y-129925048D01*
X82572181Y-129925049D01*
X82572184Y-129925051D01*
X82581493Y-129929794D01*
X82632290Y-129977766D01*
X82649087Y-130045587D01*
X82626552Y-130111722D01*
X82581505Y-130150760D01*
X82572446Y-130155376D01*
X82572440Y-130155380D01*
X82518282Y-130194727D01*
X82518282Y-130194728D01*
X83150591Y-130827037D01*
X83087007Y-130844075D01*
X82972993Y-130909901D01*
X82879901Y-131002993D01*
X82814075Y-131117007D01*
X82797037Y-131180591D01*
X82164728Y-130548282D01*
X82164727Y-130548282D01*
X82125380Y-130602439D01*
X82028904Y-130791782D01*
X81963242Y-130993869D01*
X81963242Y-130993872D01*
X81930000Y-131203753D01*
X81930000Y-131416246D01*
X81963242Y-131626127D01*
X81963242Y-131626130D01*
X82028904Y-131828217D01*
X82125375Y-132017550D01*
X82164728Y-132071716D01*
X82797037Y-131439408D01*
X82814075Y-131502993D01*
X82879901Y-131617007D01*
X82972993Y-131710099D01*
X83087007Y-131775925D01*
X83150590Y-131792962D01*
X82518282Y-132425269D01*
X82518282Y-132425270D01*
X82572449Y-132464624D01*
X82761782Y-132561095D01*
X82963870Y-132626757D01*
X83173754Y-132660000D01*
X83386246Y-132660000D01*
X83596127Y-132626757D01*
X83596130Y-132626757D01*
X83798217Y-132561095D01*
X83987554Y-132464622D01*
X84041716Y-132425270D01*
X84041717Y-132425270D01*
X83409408Y-131792962D01*
X83472993Y-131775925D01*
X83587007Y-131710099D01*
X83680099Y-131617007D01*
X83745925Y-131502993D01*
X83762962Y-131439409D01*
X84395270Y-132071717D01*
X84395270Y-132071716D01*
X84434622Y-132017555D01*
X84439232Y-132008507D01*
X84487205Y-131957709D01*
X84555025Y-131940912D01*
X84621161Y-131963447D01*
X84660204Y-132008504D01*
X84664949Y-132017817D01*
X84789890Y-132189786D01*
X84940213Y-132340109D01*
X85112179Y-132465048D01*
X85112181Y-132465049D01*
X85112184Y-132465051D01*
X85301588Y-132561557D01*
X85503757Y-132627246D01*
X85713713Y-132660500D01*
X85713714Y-132660500D01*
X85926286Y-132660500D01*
X85926287Y-132660500D01*
X86136243Y-132627246D01*
X86338412Y-132561557D01*
X86527816Y-132465051D01*
X86647177Y-132378331D01*
X86699786Y-132340109D01*
X86699788Y-132340106D01*
X86699792Y-132340104D01*
X86850104Y-132189792D01*
X86850106Y-132189788D01*
X86850109Y-132189786D01*
X86935890Y-132071717D01*
X86975051Y-132017816D01*
X86979793Y-132008508D01*
X87027763Y-131957711D01*
X87095583Y-131940911D01*
X87161719Y-131963445D01*
X87200763Y-132008500D01*
X87205373Y-132017547D01*
X87244728Y-132071716D01*
X87877037Y-131439408D01*
X87894075Y-131502993D01*
X87959901Y-131617007D01*
X88052993Y-131710099D01*
X88167007Y-131775925D01*
X88230590Y-131792962D01*
X87598282Y-132425269D01*
X87598282Y-132425270D01*
X87652449Y-132464624D01*
X87841782Y-132561095D01*
X88043870Y-132626757D01*
X88253754Y-132660000D01*
X88466246Y-132660000D01*
X88676127Y-132626757D01*
X88676130Y-132626757D01*
X88878217Y-132561095D01*
X89067554Y-132464622D01*
X89121716Y-132425270D01*
X89121717Y-132425270D01*
X88489408Y-131792962D01*
X88552993Y-131775925D01*
X88667007Y-131710099D01*
X88760099Y-131617007D01*
X88825925Y-131502993D01*
X88842962Y-131439408D01*
X89475270Y-132071717D01*
X89475270Y-132071716D01*
X89514622Y-132017555D01*
X89519232Y-132008507D01*
X89567205Y-131957709D01*
X89635025Y-131940912D01*
X89701161Y-131963447D01*
X89740204Y-132008504D01*
X89744949Y-132017817D01*
X89869890Y-132189786D01*
X90020213Y-132340109D01*
X90192179Y-132465048D01*
X90192181Y-132465049D01*
X90192184Y-132465051D01*
X90381588Y-132561557D01*
X90583757Y-132627246D01*
X90793713Y-132660500D01*
X90793714Y-132660500D01*
X91006286Y-132660500D01*
X91006287Y-132660500D01*
X91216243Y-132627246D01*
X91418412Y-132561557D01*
X91607816Y-132465051D01*
X91727177Y-132378331D01*
X91779786Y-132340109D01*
X91779788Y-132340106D01*
X91779792Y-132340104D01*
X91930104Y-132189792D01*
X91930106Y-132189788D01*
X91930109Y-132189786D01*
X92055048Y-132017820D01*
X92055047Y-132017820D01*
X92055051Y-132017816D01*
X92151557Y-131828412D01*
X92217246Y-131626243D01*
X92250500Y-131416287D01*
X92250500Y-131203713D01*
X92217246Y-130993757D01*
X92203506Y-130951473D01*
X92201512Y-130881635D01*
X92233755Y-130825478D01*
X92528506Y-130530728D01*
X92528511Y-130530724D01*
X92538714Y-130520520D01*
X92538716Y-130520520D01*
X92650520Y-130408716D01*
X92724894Y-130279896D01*
X92729577Y-130271785D01*
X92770500Y-130119058D01*
X92770500Y-130117497D01*
X92773777Y-130106643D01*
X92787560Y-130085549D01*
X92797733Y-130062494D01*
X92806348Y-130056798D01*
X92811998Y-130048154D01*
X92834999Y-130037860D01*
X92856020Y-130023965D01*
X92866344Y-130023831D01*
X92875772Y-130019613D01*
X92900689Y-130023389D01*
X92925884Y-130023065D01*
X92930796Y-130024549D01*
X93123757Y-130087246D01*
X93333713Y-130120500D01*
X93333714Y-130120500D01*
X93546286Y-130120500D01*
X93546287Y-130120500D01*
X93756243Y-130087246D01*
X93958412Y-130021557D01*
X94022105Y-129989103D01*
X94090773Y-129976207D01*
X94155514Y-130002483D01*
X94195771Y-130059589D01*
X94202400Y-130099588D01*
X94202400Y-132816230D01*
X94202399Y-132816248D01*
X94202399Y-132981954D01*
X94202398Y-132981954D01*
X94243323Y-133134685D01*
X94272258Y-133184800D01*
X94272259Y-133184804D01*
X94272260Y-133184804D01*
X94322379Y-133271614D01*
X94322381Y-133271617D01*
X94441249Y-133390485D01*
X94441254Y-133390489D01*
X95531284Y-134480520D01*
X95531286Y-134480521D01*
X95531290Y-134480524D01*
X95668209Y-134559573D01*
X95668216Y-134559577D01*
X95820943Y-134600501D01*
X95820945Y-134600501D01*
X95986654Y-134600501D01*
X95986670Y-134600500D01*
X104413331Y-134600500D01*
X104413347Y-134600501D01*
X104420943Y-134600501D01*
X104579054Y-134600501D01*
X104579057Y-134600501D01*
X104731785Y-134559577D01*
X104781904Y-134530639D01*
X104868716Y-134480520D01*
X104980520Y-134368716D01*
X104980520Y-134368714D01*
X104990728Y-134358507D01*
X104990730Y-134358504D01*
X106498506Y-132850728D01*
X106498511Y-132850724D01*
X106508714Y-132840520D01*
X106508716Y-132840520D01*
X106620520Y-132728716D01*
X106679103Y-132627246D01*
X106699577Y-132591785D01*
X106704206Y-132574506D01*
X106709297Y-132563969D01*
X106725201Y-132546396D01*
X106737538Y-132526155D01*
X106753503Y-132515126D01*
X106756183Y-132512166D01*
X106758821Y-132511452D01*
X106764656Y-132507422D01*
X106847816Y-132465051D01*
X107019792Y-132340104D01*
X107170104Y-132189792D01*
X107170106Y-132189788D01*
X107170109Y-132189786D01*
X107255890Y-132071717D01*
X107295051Y-132017816D01*
X107299793Y-132008508D01*
X107347763Y-131957711D01*
X107415583Y-131940911D01*
X107481719Y-131963445D01*
X107520763Y-132008500D01*
X107525373Y-132017547D01*
X107564728Y-132071716D01*
X108197037Y-131439408D01*
X108214075Y-131502993D01*
X108279901Y-131617007D01*
X108372993Y-131710099D01*
X108487007Y-131775925D01*
X108550590Y-131792962D01*
X107918282Y-132425269D01*
X107918282Y-132425270D01*
X107972449Y-132464624D01*
X108161782Y-132561095D01*
X108363870Y-132626757D01*
X108573754Y-132660000D01*
X108786246Y-132660000D01*
X108996127Y-132626757D01*
X108996130Y-132626757D01*
X109198217Y-132561095D01*
X109387554Y-132464622D01*
X109441716Y-132425270D01*
X109441717Y-132425270D01*
X108809408Y-131792962D01*
X108872993Y-131775925D01*
X108987007Y-131710099D01*
X109080099Y-131617007D01*
X109145925Y-131502993D01*
X109162962Y-131439408D01*
X109795270Y-132071717D01*
X109795270Y-132071716D01*
X109834622Y-132017555D01*
X109839232Y-132008507D01*
X109887205Y-131957709D01*
X109955025Y-131940912D01*
X110021161Y-131963447D01*
X110060204Y-132008504D01*
X110064949Y-132017817D01*
X110189890Y-132189786D01*
X110340213Y-132340109D01*
X110512179Y-132465048D01*
X110512181Y-132465049D01*
X110512184Y-132465051D01*
X110701588Y-132561557D01*
X110903757Y-132627246D01*
X111113713Y-132660500D01*
X111113714Y-132660500D01*
X111326286Y-132660500D01*
X111326287Y-132660500D01*
X111536243Y-132627246D01*
X111738412Y-132561557D01*
X111927816Y-132465051D01*
X112047177Y-132378331D01*
X112099786Y-132340109D01*
X112099788Y-132340106D01*
X112099792Y-132340104D01*
X112250104Y-132189792D01*
X112250106Y-132189788D01*
X112250109Y-132189786D01*
X112335890Y-132071717D01*
X112375051Y-132017816D01*
X112379793Y-132008508D01*
X112427763Y-131957711D01*
X112495583Y-131940911D01*
X112561719Y-131963445D01*
X112600763Y-132008500D01*
X112605373Y-132017547D01*
X112644728Y-132071716D01*
X113277037Y-131439408D01*
X113294075Y-131502993D01*
X113359901Y-131617007D01*
X113452993Y-131710099D01*
X113567007Y-131775925D01*
X113630590Y-131792962D01*
X112998282Y-132425269D01*
X112998282Y-132425270D01*
X113052449Y-132464624D01*
X113241782Y-132561095D01*
X113443870Y-132626757D01*
X113653754Y-132660000D01*
X113866246Y-132660000D01*
X114076127Y-132626757D01*
X114076130Y-132626757D01*
X114278217Y-132561095D01*
X114467554Y-132464622D01*
X114521716Y-132425270D01*
X114521717Y-132425270D01*
X113889408Y-131792962D01*
X113952993Y-131775925D01*
X114067007Y-131710099D01*
X114160099Y-131617007D01*
X114225925Y-131502993D01*
X114242962Y-131439409D01*
X114875270Y-132071717D01*
X114875270Y-132071716D01*
X114914622Y-132017555D01*
X114919232Y-132008507D01*
X114967205Y-131957709D01*
X115035025Y-131940912D01*
X115101161Y-131963447D01*
X115140204Y-132008504D01*
X115144949Y-132017817D01*
X115269890Y-132189786D01*
X115420213Y-132340109D01*
X115592179Y-132465048D01*
X115592181Y-132465049D01*
X115592184Y-132465051D01*
X115781588Y-132561557D01*
X115983757Y-132627246D01*
X116193713Y-132660500D01*
X116193714Y-132660500D01*
X116406286Y-132660500D01*
X116406287Y-132660500D01*
X116616243Y-132627246D01*
X116818412Y-132561557D01*
X117007816Y-132465051D01*
X117127177Y-132378331D01*
X117179786Y-132340109D01*
X117179788Y-132340106D01*
X117179792Y-132340104D01*
X117330104Y-132189792D01*
X117330106Y-132189788D01*
X117330109Y-132189786D01*
X117415890Y-132071717D01*
X117455051Y-132017816D01*
X117459793Y-132008508D01*
X117507763Y-131957711D01*
X117575583Y-131940911D01*
X117641719Y-131963445D01*
X117680763Y-132008500D01*
X117685373Y-132017547D01*
X117724728Y-132071716D01*
X118357037Y-131439408D01*
X118374075Y-131502993D01*
X118439901Y-131617007D01*
X118532993Y-131710099D01*
X118647007Y-131775925D01*
X118710590Y-131792962D01*
X118078282Y-132425269D01*
X118078282Y-132425270D01*
X118132449Y-132464624D01*
X118321782Y-132561095D01*
X118523870Y-132626757D01*
X118733754Y-132660000D01*
X118946246Y-132660000D01*
X119156127Y-132626757D01*
X119156130Y-132626757D01*
X119358217Y-132561095D01*
X119547554Y-132464622D01*
X119601716Y-132425270D01*
X119601717Y-132425270D01*
X118969408Y-131792962D01*
X119032993Y-131775925D01*
X119147007Y-131710099D01*
X119240099Y-131617007D01*
X119305925Y-131502993D01*
X119322962Y-131439408D01*
X119955270Y-132071717D01*
X119955270Y-132071716D01*
X119994622Y-132017555D01*
X119999232Y-132008507D01*
X120047205Y-131957709D01*
X120115025Y-131940912D01*
X120181161Y-131963447D01*
X120220204Y-132008504D01*
X120224949Y-132017817D01*
X120349890Y-132189786D01*
X120500213Y-132340109D01*
X120672179Y-132465048D01*
X120672181Y-132465049D01*
X120672184Y-132465051D01*
X120861588Y-132561557D01*
X121063757Y-132627246D01*
X121273713Y-132660500D01*
X121273714Y-132660500D01*
X121486286Y-132660500D01*
X121486287Y-132660500D01*
X121696243Y-132627246D01*
X121898412Y-132561557D01*
X122087816Y-132465051D01*
X122207177Y-132378331D01*
X122259786Y-132340109D01*
X122259788Y-132340106D01*
X122259792Y-132340104D01*
X122410104Y-132189792D01*
X122410106Y-132189788D01*
X122410109Y-132189786D01*
X122495890Y-132071717D01*
X122535051Y-132017816D01*
X122539793Y-132008508D01*
X122587763Y-131957711D01*
X122655583Y-131940911D01*
X122721719Y-131963445D01*
X122760763Y-132008500D01*
X122765373Y-132017547D01*
X122804728Y-132071716D01*
X123437037Y-131439408D01*
X123454075Y-131502993D01*
X123519901Y-131617007D01*
X123612993Y-131710099D01*
X123727007Y-131775925D01*
X123790590Y-131792962D01*
X123158282Y-132425269D01*
X123158282Y-132425270D01*
X123212449Y-132464624D01*
X123401782Y-132561095D01*
X123603870Y-132626757D01*
X123813754Y-132660000D01*
X124026246Y-132660000D01*
X124236127Y-132626757D01*
X124236130Y-132626757D01*
X124438217Y-132561095D01*
X124627554Y-132464622D01*
X124681716Y-132425270D01*
X124681717Y-132425270D01*
X124049408Y-131792962D01*
X124112993Y-131775925D01*
X124227007Y-131710099D01*
X124320099Y-131617007D01*
X124385925Y-131502993D01*
X124402962Y-131439408D01*
X125035270Y-132071717D01*
X125035270Y-132071716D01*
X125074622Y-132017554D01*
X125079514Y-132007954D01*
X125127488Y-131957157D01*
X125195308Y-131940361D01*
X125261444Y-131962897D01*
X125300486Y-132007954D01*
X125305375Y-132017550D01*
X125344728Y-132071716D01*
X125977037Y-131439408D01*
X125994075Y-131502993D01*
X126059901Y-131617007D01*
X126152993Y-131710099D01*
X126267007Y-131775925D01*
X126330590Y-131792962D01*
X125698282Y-132425269D01*
X125698282Y-132425270D01*
X125752449Y-132464624D01*
X125941782Y-132561095D01*
X126143870Y-132626757D01*
X126353754Y-132660000D01*
X126566246Y-132660000D01*
X126776127Y-132626757D01*
X126776130Y-132626757D01*
X126978217Y-132561095D01*
X127167554Y-132464622D01*
X127221716Y-132425270D01*
X127221717Y-132425270D01*
X126589408Y-131792962D01*
X126652993Y-131775925D01*
X126767007Y-131710099D01*
X126860099Y-131617007D01*
X126925925Y-131502993D01*
X126942962Y-131439408D01*
X127575270Y-132071717D01*
X127575270Y-132071716D01*
X127614622Y-132017554D01*
X127619514Y-132007954D01*
X127667488Y-131957157D01*
X127735308Y-131940361D01*
X127801444Y-131962897D01*
X127840486Y-132007954D01*
X127845375Y-132017550D01*
X127884728Y-132071716D01*
X128517037Y-131439408D01*
X128534075Y-131502993D01*
X128599901Y-131617007D01*
X128692993Y-131710099D01*
X128807007Y-131775925D01*
X128870590Y-131792962D01*
X128238282Y-132425269D01*
X128238282Y-132425270D01*
X128292449Y-132464624D01*
X128481782Y-132561095D01*
X128683870Y-132626757D01*
X128893754Y-132660000D01*
X129106246Y-132660000D01*
X129316127Y-132626757D01*
X129316130Y-132626757D01*
X129518217Y-132561095D01*
X129707554Y-132464622D01*
X129761716Y-132425270D01*
X129761717Y-132425270D01*
X129129408Y-131792962D01*
X129192993Y-131775925D01*
X129307007Y-131710099D01*
X129400099Y-131617007D01*
X129465925Y-131502993D01*
X129482962Y-131439408D01*
X130115270Y-132071717D01*
X130115270Y-132071716D01*
X130154622Y-132017554D01*
X130159514Y-132007954D01*
X130207488Y-131957157D01*
X130275308Y-131940361D01*
X130341444Y-131962897D01*
X130380486Y-132007954D01*
X130385375Y-132017550D01*
X130424728Y-132071716D01*
X131057037Y-131439408D01*
X131074075Y-131502993D01*
X131139901Y-131617007D01*
X131232993Y-131710099D01*
X131347007Y-131775925D01*
X131410590Y-131792962D01*
X130778282Y-132425269D01*
X130778282Y-132425270D01*
X130832449Y-132464624D01*
X131021782Y-132561095D01*
X131223870Y-132626757D01*
X131433754Y-132660000D01*
X131646246Y-132660000D01*
X131856127Y-132626757D01*
X131856130Y-132626757D01*
X132058217Y-132561095D01*
X132247554Y-132464622D01*
X132301716Y-132425270D01*
X132301717Y-132425270D01*
X131669408Y-131792962D01*
X131732993Y-131775925D01*
X131847007Y-131710099D01*
X131940099Y-131617007D01*
X132005925Y-131502993D01*
X132022962Y-131439408D01*
X132655270Y-132071717D01*
X132655270Y-132071716D01*
X132694622Y-132017554D01*
X132699514Y-132007954D01*
X132747488Y-131957157D01*
X132815308Y-131940361D01*
X132881444Y-131962897D01*
X132920486Y-132007954D01*
X132925375Y-132017550D01*
X132964728Y-132071716D01*
X133597037Y-131439408D01*
X133614075Y-131502993D01*
X133679901Y-131617007D01*
X133772993Y-131710099D01*
X133887007Y-131775925D01*
X133950590Y-131792962D01*
X133318282Y-132425269D01*
X133318282Y-132425270D01*
X133372449Y-132464624D01*
X133561782Y-132561095D01*
X133763870Y-132626757D01*
X133973754Y-132660000D01*
X134186246Y-132660000D01*
X134396127Y-132626757D01*
X134396130Y-132626757D01*
X134598217Y-132561095D01*
X134787554Y-132464622D01*
X134841716Y-132425270D01*
X134841717Y-132425270D01*
X134209408Y-131792962D01*
X134272993Y-131775925D01*
X134387007Y-131710099D01*
X134480099Y-131617007D01*
X134545925Y-131502993D01*
X134562962Y-131439408D01*
X135195270Y-132071717D01*
X135195270Y-132071716D01*
X135234622Y-132017554D01*
X135239514Y-132007954D01*
X135287488Y-131957157D01*
X135355308Y-131940361D01*
X135421444Y-131962897D01*
X135460486Y-132007954D01*
X135465375Y-132017550D01*
X135504728Y-132071716D01*
X136137037Y-131439408D01*
X136154075Y-131502993D01*
X136219901Y-131617007D01*
X136312993Y-131710099D01*
X136427007Y-131775925D01*
X136490590Y-131792962D01*
X135858282Y-132425269D01*
X135858282Y-132425270D01*
X135912449Y-132464624D01*
X136101782Y-132561095D01*
X136303870Y-132626757D01*
X136513754Y-132660000D01*
X136726246Y-132660000D01*
X136936127Y-132626757D01*
X136936130Y-132626757D01*
X137138217Y-132561095D01*
X137327554Y-132464622D01*
X137381716Y-132425270D01*
X137381717Y-132425270D01*
X136749408Y-131792962D01*
X136812993Y-131775925D01*
X136927007Y-131710099D01*
X137020099Y-131617007D01*
X137085925Y-131502993D01*
X137102962Y-131439408D01*
X137735270Y-132071717D01*
X137735270Y-132071716D01*
X137774622Y-132017554D01*
X137779514Y-132007954D01*
X137827488Y-131957157D01*
X137895308Y-131940361D01*
X137961444Y-131962897D01*
X138000486Y-132007954D01*
X138005375Y-132017550D01*
X138044728Y-132071716D01*
X138677037Y-131439408D01*
X138694075Y-131502993D01*
X138759901Y-131617007D01*
X138852993Y-131710099D01*
X138967007Y-131775925D01*
X139030590Y-131792962D01*
X138398282Y-132425269D01*
X138398282Y-132425270D01*
X138452449Y-132464624D01*
X138641782Y-132561095D01*
X138843870Y-132626757D01*
X139053754Y-132660000D01*
X139266246Y-132660000D01*
X139476127Y-132626757D01*
X139476130Y-132626757D01*
X139678217Y-132561095D01*
X139867554Y-132464622D01*
X139921716Y-132425270D01*
X139921717Y-132425270D01*
X139289408Y-131792962D01*
X139352993Y-131775925D01*
X139467007Y-131710099D01*
X139560099Y-131617007D01*
X139625925Y-131502993D01*
X139642962Y-131439408D01*
X140275270Y-132071717D01*
X140275270Y-132071716D01*
X140314622Y-132017554D01*
X140319514Y-132007954D01*
X140367488Y-131957157D01*
X140435308Y-131940361D01*
X140501444Y-131962897D01*
X140540486Y-132007954D01*
X140545375Y-132017550D01*
X140584728Y-132071716D01*
X141217037Y-131439408D01*
X141234075Y-131502993D01*
X141299901Y-131617007D01*
X141392993Y-131710099D01*
X141507007Y-131775925D01*
X141570590Y-131792962D01*
X140938282Y-132425269D01*
X140938282Y-132425270D01*
X140992449Y-132464624D01*
X141181782Y-132561095D01*
X141383870Y-132626757D01*
X141593754Y-132660000D01*
X141806246Y-132660000D01*
X142016127Y-132626757D01*
X142016130Y-132626757D01*
X142218217Y-132561095D01*
X142407554Y-132464622D01*
X142461716Y-132425270D01*
X142461717Y-132425270D01*
X141829408Y-131792962D01*
X141892993Y-131775925D01*
X142007007Y-131710099D01*
X142100099Y-131617007D01*
X142165925Y-131502993D01*
X142182962Y-131439408D01*
X142815270Y-132071717D01*
X142815270Y-132071716D01*
X142854622Y-132017554D01*
X142859514Y-132007954D01*
X142907488Y-131957157D01*
X142975308Y-131940361D01*
X143041444Y-131962897D01*
X143080486Y-132007954D01*
X143085375Y-132017550D01*
X143124728Y-132071716D01*
X143757037Y-131439408D01*
X143774075Y-131502993D01*
X143839901Y-131617007D01*
X143932993Y-131710099D01*
X144047007Y-131775925D01*
X144110590Y-131792962D01*
X143478282Y-132425269D01*
X143478282Y-132425270D01*
X143532449Y-132464624D01*
X143721782Y-132561095D01*
X143923870Y-132626757D01*
X144133754Y-132660000D01*
X144346246Y-132660000D01*
X144556127Y-132626757D01*
X144556130Y-132626757D01*
X144758217Y-132561095D01*
X144947554Y-132464622D01*
X145001716Y-132425270D01*
X145001717Y-132425270D01*
X144369408Y-131792962D01*
X144432993Y-131775925D01*
X144547007Y-131710099D01*
X144640099Y-131617007D01*
X144705925Y-131502993D01*
X144722962Y-131439408D01*
X145355270Y-132071717D01*
X145355270Y-132071716D01*
X145394622Y-132017554D01*
X145491095Y-131828217D01*
X145556757Y-131626130D01*
X145556757Y-131626127D01*
X145590000Y-131416246D01*
X145590000Y-131203753D01*
X145556757Y-130993872D01*
X145556757Y-130993869D01*
X145491095Y-130791782D01*
X145394624Y-130602449D01*
X145355270Y-130548282D01*
X144722962Y-131180590D01*
X144705925Y-131117007D01*
X144640099Y-131002993D01*
X144547007Y-130909901D01*
X144432993Y-130844075D01*
X144369409Y-130827037D01*
X145005889Y-130190555D01*
X145016977Y-130137768D01*
X145066027Y-130088010D01*
X145087222Y-130078709D01*
X145159334Y-130054814D01*
X145308656Y-129962712D01*
X145432712Y-129838656D01*
X145524814Y-129689334D01*
X145579999Y-129522797D01*
X145590500Y-129420009D01*
X145590499Y-128119992D01*
X145579999Y-128017203D01*
X145524814Y-127850666D01*
X145432712Y-127701344D01*
X145308656Y-127577288D01*
X145210571Y-127516789D01*
X145159336Y-127485187D01*
X145159331Y-127485185D01*
X145144652Y-127480321D01*
X144992797Y-127430001D01*
X144992795Y-127430000D01*
X144951896Y-127425822D01*
X144887205Y-127399425D01*
X144847054Y-127342244D01*
X144840500Y-127302464D01*
X144840500Y-116714038D01*
X148259500Y-116714038D01*
X148259500Y-116965962D01*
X148290084Y-117159060D01*
X148298910Y-117214785D01*
X148376760Y-117454383D01*
X148491132Y-117678848D01*
X148639201Y-117882649D01*
X148639205Y-117882654D01*
X148817345Y-118060794D01*
X148817350Y-118060798D01*
X148957105Y-118162335D01*
X149021155Y-118208870D01*
X149164184Y-118281747D01*
X149245616Y-118323239D01*
X149245618Y-118323239D01*
X149245621Y-118323241D01*
X149485215Y-118401090D01*
X149734038Y-118440500D01*
X149734039Y-118440500D01*
X149985961Y-118440500D01*
X149985962Y-118440500D01*
X150234785Y-118401090D01*
X150474379Y-118323241D01*
X150698845Y-118208870D01*
X150902656Y-118060793D01*
X151080793Y-117882656D01*
X151228870Y-117678845D01*
X151343241Y-117454379D01*
X151421090Y-117214785D01*
X151460500Y-116965962D01*
X151460500Y-116714038D01*
X151421090Y-116465215D01*
X151343241Y-116225621D01*
X151343239Y-116225618D01*
X151343239Y-116225616D01*
X151301747Y-116144184D01*
X151228870Y-116001155D01*
X151209952Y-115975117D01*
X151080798Y-115797350D01*
X151080794Y-115797345D01*
X150902654Y-115619205D01*
X150902649Y-115619201D01*
X150698848Y-115471132D01*
X150698847Y-115471131D01*
X150698845Y-115471130D01*
X150628747Y-115435413D01*
X150474383Y-115356760D01*
X150234785Y-115278910D01*
X149985962Y-115239500D01*
X149734038Y-115239500D01*
X149609626Y-115259205D01*
X149485214Y-115278910D01*
X149245616Y-115356760D01*
X149021151Y-115471132D01*
X148817350Y-115619201D01*
X148817345Y-115619205D01*
X148639205Y-115797345D01*
X148639201Y-115797350D01*
X148491132Y-116001151D01*
X148376760Y-116225616D01*
X148298910Y-116465214D01*
X148298910Y-116465215D01*
X148259500Y-116714038D01*
X144840500Y-116714038D01*
X144840500Y-77041145D01*
X144840500Y-77041143D01*
X144799577Y-76888416D01*
X144799577Y-76888415D01*
X144759336Y-76818716D01*
X144720520Y-76751484D01*
X144608716Y-76639680D01*
X144604385Y-76635349D01*
X144604374Y-76635339D01*
X131053073Y-63084038D01*
X148259500Y-63084038D01*
X148259500Y-63335961D01*
X148298910Y-63584785D01*
X148376760Y-63824383D01*
X148491132Y-64048848D01*
X148639201Y-64252649D01*
X148639205Y-64252654D01*
X148817345Y-64430794D01*
X148817350Y-64430798D01*
X148995117Y-64559952D01*
X149021155Y-64578870D01*
X149164184Y-64651747D01*
X149245616Y-64693239D01*
X149245618Y-64693239D01*
X149245621Y-64693241D01*
X149485215Y-64771090D01*
X149734038Y-64810500D01*
X149734039Y-64810500D01*
X149985961Y-64810500D01*
X149985962Y-64810500D01*
X150234785Y-64771090D01*
X150474379Y-64693241D01*
X150698845Y-64578870D01*
X150902656Y-64430793D01*
X151080793Y-64252656D01*
X151228870Y-64048845D01*
X151343241Y-63824379D01*
X151421090Y-63584785D01*
X151460500Y-63335962D01*
X151460500Y-63084038D01*
X151421090Y-62835215D01*
X151343241Y-62595621D01*
X151343239Y-62595618D01*
X151343239Y-62595616D01*
X151284329Y-62480000D01*
X151228870Y-62371155D01*
X151185055Y-62310849D01*
X151080798Y-62167350D01*
X151080794Y-62167345D01*
X150902654Y-61989205D01*
X150902649Y-61989201D01*
X150698848Y-61841132D01*
X150698847Y-61841131D01*
X150698845Y-61841130D01*
X150622060Y-61802006D01*
X150474383Y-61726760D01*
X150234785Y-61648910D01*
X149985962Y-61609500D01*
X149734038Y-61609500D01*
X149609626Y-61629205D01*
X149485214Y-61648910D01*
X149245616Y-61726760D01*
X149021151Y-61841132D01*
X148817350Y-61989201D01*
X148817345Y-61989205D01*
X148639205Y-62167345D01*
X148639201Y-62167350D01*
X148491132Y-62371151D01*
X148376760Y-62595616D01*
X148298910Y-62835214D01*
X148259500Y-63084038D01*
X131053073Y-63084038D01*
X127640790Y-59671755D01*
X127640788Y-59671752D01*
X127521917Y-59552881D01*
X127521916Y-59552880D01*
X127435104Y-59502760D01*
X127435104Y-59502759D01*
X127435100Y-59502758D01*
X127384985Y-59473823D01*
X127232257Y-59432899D01*
X127074143Y-59432899D01*
X127066547Y-59432899D01*
X127066531Y-59432900D01*
X106420857Y-59432900D01*
X106262743Y-59432900D01*
X106110015Y-59473823D01*
X106110014Y-59473823D01*
X106110012Y-59473824D01*
X106110009Y-59473825D01*
X106059896Y-59502759D01*
X106059895Y-59502760D01*
X106045036Y-59511339D01*
X105973085Y-59552879D01*
X105973082Y-59552881D01*
X104187380Y-61338584D01*
X104126057Y-61372069D01*
X104056365Y-61367085D01*
X104000432Y-61325213D01*
X103976015Y-61259749D01*
X103975699Y-61250903D01*
X103975699Y-60312129D01*
X103975698Y-60312123D01*
X103969291Y-60252516D01*
X103918997Y-60117671D01*
X103918993Y-60117664D01*
X103832747Y-60002455D01*
X103832744Y-60002452D01*
X103717535Y-59916206D01*
X103717528Y-59916202D01*
X103582682Y-59865908D01*
X103582683Y-59865908D01*
X103523083Y-59859501D01*
X103523081Y-59859500D01*
X103523073Y-59859500D01*
X103523064Y-59859500D01*
X101727329Y-59859500D01*
X101727323Y-59859501D01*
X101667716Y-59865908D01*
X101532871Y-59916202D01*
X101532864Y-59916206D01*
X101417655Y-60002452D01*
X101417652Y-60002455D01*
X101331406Y-60117664D01*
X101331403Y-60117669D01*
X101282389Y-60249083D01*
X101240517Y-60305016D01*
X101175053Y-60329433D01*
X101106780Y-60314581D01*
X101078526Y-60293430D01*
X100964986Y-60179890D01*
X100793020Y-60054951D01*
X100603614Y-59958444D01*
X100603613Y-59958443D01*
X100603612Y-59958443D01*
X100401443Y-59892754D01*
X100401441Y-59892753D01*
X100401440Y-59892753D01*
X100240157Y-59867208D01*
X100191487Y-59859500D01*
X99978913Y-59859500D01*
X99930242Y-59867208D01*
X99768960Y-59892753D01*
X99566785Y-59958444D01*
X99377379Y-60054951D01*
X99205413Y-60179890D01*
X99055090Y-60330213D01*
X98930151Y-60502179D01*
X98833644Y-60691585D01*
X98767953Y-60893760D01*
X98766152Y-60905134D01*
X98734700Y-61103713D01*
X98734700Y-61316287D01*
X98767954Y-61526243D01*
X98833106Y-61726760D01*
X98833644Y-61728414D01*
X98930151Y-61917820D01*
X99055090Y-62089786D01*
X99205413Y-62240109D01*
X99377382Y-62365050D01*
X99386146Y-62369516D01*
X99436942Y-62417491D01*
X99453736Y-62485312D01*
X99431198Y-62551447D01*
X99386146Y-62590484D01*
X99377382Y-62594949D01*
X99205413Y-62719890D01*
X99055090Y-62870213D01*
X98930151Y-63042179D01*
X98833644Y-63231585D01*
X98767953Y-63433760D01*
X98734700Y-63643713D01*
X98734700Y-63856287D01*
X98767954Y-64066243D01*
X98828521Y-64252649D01*
X98833644Y-64268414D01*
X98930151Y-64457820D01*
X99055090Y-64629786D01*
X99205413Y-64780109D01*
X99377382Y-64905050D01*
X99386146Y-64909516D01*
X99436942Y-64957491D01*
X99453736Y-65025312D01*
X99431198Y-65091447D01*
X99386146Y-65130484D01*
X99377382Y-65134949D01*
X99205413Y-65259890D01*
X99055090Y-65410213D01*
X98930151Y-65582179D01*
X98833644Y-65771585D01*
X98767953Y-65973760D01*
X98734700Y-66183713D01*
X98734700Y-66396286D01*
X98767953Y-66606239D01*
X98833644Y-66808414D01*
X98930151Y-66997820D01*
X99055090Y-67169786D01*
X99205413Y-67320109D01*
X99377382Y-67445050D01*
X99386146Y-67449516D01*
X99436942Y-67497491D01*
X99453736Y-67565312D01*
X99431198Y-67631447D01*
X99386146Y-67670484D01*
X99377382Y-67674949D01*
X99205413Y-67799890D01*
X99055090Y-67950213D01*
X98930151Y-68122179D01*
X98833644Y-68311585D01*
X98767953Y-68513760D01*
X98752172Y-68613397D01*
X98734700Y-68723713D01*
X98734700Y-68936287D01*
X98767954Y-69146243D01*
X98822170Y-69313103D01*
X98833644Y-69348414D01*
X98930151Y-69537820D01*
X99055090Y-69709786D01*
X99205413Y-69860109D01*
X99377382Y-69985050D01*
X99386146Y-69989516D01*
X99436942Y-70037491D01*
X99453736Y-70105312D01*
X99431198Y-70171447D01*
X99386146Y-70210484D01*
X99377382Y-70214949D01*
X99205413Y-70339890D01*
X99055090Y-70490213D01*
X98930151Y-70662179D01*
X98833644Y-70851585D01*
X98767953Y-71053760D01*
X98734700Y-71263713D01*
X98734700Y-71476286D01*
X98750198Y-71574140D01*
X98767954Y-71686243D01*
X98828103Y-71871363D01*
X98833644Y-71888414D01*
X98930151Y-72077820D01*
X99055090Y-72249786D01*
X99205413Y-72400109D01*
X99377382Y-72525050D01*
X99386146Y-72529516D01*
X99436942Y-72577491D01*
X99453736Y-72645312D01*
X99431198Y-72711447D01*
X99386146Y-72750484D01*
X99377382Y-72754949D01*
X99205413Y-72879890D01*
X99055090Y-73030213D01*
X98930151Y-73202179D01*
X98833644Y-73391585D01*
X98767953Y-73593760D01*
X98734700Y-73803713D01*
X98734700Y-74016286D01*
X98767953Y-74226239D01*
X98833644Y-74428414D01*
X98930151Y-74617820D01*
X99055090Y-74789786D01*
X99205413Y-74940109D01*
X99377382Y-75065050D01*
X99386146Y-75069516D01*
X99436942Y-75117491D01*
X99453736Y-75185312D01*
X99431198Y-75251447D01*
X99386146Y-75290484D01*
X99377382Y-75294949D01*
X99205413Y-75419890D01*
X99055090Y-75570213D01*
X98930151Y-75742179D01*
X98833644Y-75931585D01*
X98767953Y-76133760D01*
X98734700Y-76343713D01*
X98734700Y-76556286D01*
X98767472Y-76763203D01*
X98767954Y-76766243D01*
X98827746Y-76950264D01*
X98833644Y-76968414D01*
X98930151Y-77157820D01*
X99055090Y-77329786D01*
X99205413Y-77480109D01*
X99377382Y-77605050D01*
X99386146Y-77609516D01*
X99436942Y-77657491D01*
X99453736Y-77725312D01*
X99431198Y-77791447D01*
X99386146Y-77830484D01*
X99377382Y-77834949D01*
X99205413Y-77959890D01*
X99055090Y-78110213D01*
X98930151Y-78282179D01*
X98833644Y-78471585D01*
X98767953Y-78673760D01*
X98734700Y-78883713D01*
X98734700Y-79096286D01*
X98767953Y-79306239D01*
X98833644Y-79508414D01*
X98930151Y-79697820D01*
X99055090Y-79869786D01*
X99205413Y-80020109D01*
X99377382Y-80145050D01*
X99386146Y-80149516D01*
X99436942Y-80197491D01*
X99453736Y-80265312D01*
X99431198Y-80331447D01*
X99386146Y-80370484D01*
X99377382Y-80374949D01*
X99205413Y-80499890D01*
X99055090Y-80650213D01*
X98930151Y-80822179D01*
X98833644Y-81011585D01*
X98767953Y-81213760D01*
X98767953Y-81213762D01*
X98734700Y-81423713D01*
X98734700Y-81636287D01*
X98767954Y-81846243D01*
X98827746Y-82030264D01*
X98833644Y-82048414D01*
X98930151Y-82237820D01*
X99055090Y-82409786D01*
X99205413Y-82560109D01*
X99377382Y-82685050D01*
X99386146Y-82689516D01*
X99436942Y-82737491D01*
X99453736Y-82805312D01*
X99431198Y-82871447D01*
X99386146Y-82910484D01*
X99377382Y-82914949D01*
X99205413Y-83039890D01*
X99055090Y-83190213D01*
X98930151Y-83362179D01*
X98833644Y-83551585D01*
X98767953Y-83753760D01*
X98734700Y-83963713D01*
X98734700Y-84176286D01*
X98767953Y-84386239D01*
X98833644Y-84588414D01*
X98930151Y-84777820D01*
X99055090Y-84949786D01*
X99205413Y-85100109D01*
X99377382Y-85225050D01*
X99386146Y-85229516D01*
X99436942Y-85277491D01*
X99453736Y-85345312D01*
X99431198Y-85411447D01*
X99386146Y-85450484D01*
X99377382Y-85454949D01*
X99205413Y-85579890D01*
X99055090Y-85730213D01*
X98930151Y-85902179D01*
X98833644Y-86091585D01*
X98767953Y-86293760D01*
X98734700Y-86503713D01*
X98734700Y-86716287D01*
X98767954Y-86926243D01*
X98833492Y-87127948D01*
X98833644Y-87128414D01*
X98930151Y-87317820D01*
X99055090Y-87489786D01*
X99205413Y-87640109D01*
X99377382Y-87765050D01*
X99386146Y-87769516D01*
X99436942Y-87817491D01*
X99453736Y-87885312D01*
X99431198Y-87951447D01*
X99386146Y-87990484D01*
X99377382Y-87994949D01*
X99205413Y-88119890D01*
X99055090Y-88270213D01*
X98930151Y-88442179D01*
X98833644Y-88631585D01*
X98767953Y-88833760D01*
X98767953Y-88833762D01*
X98734700Y-89043713D01*
X98734700Y-89256287D01*
X98767954Y-89466243D01*
X98827746Y-89650264D01*
X98833644Y-89668414D01*
X98930151Y-89857820D01*
X99055090Y-90029786D01*
X99205413Y-90180109D01*
X99377382Y-90305050D01*
X99386146Y-90309516D01*
X99436942Y-90357491D01*
X99453736Y-90425312D01*
X99431198Y-90491447D01*
X99386146Y-90530484D01*
X99377382Y-90534949D01*
X99205413Y-90659890D01*
X99055090Y-90810213D01*
X98930151Y-90982179D01*
X98833644Y-91171585D01*
X98767953Y-91373760D01*
X98734700Y-91583713D01*
X98734700Y-91796286D01*
X98767953Y-92006239D01*
X98833644Y-92208414D01*
X98930151Y-92397820D01*
X99055090Y-92569786D01*
X99205413Y-92720109D01*
X99377382Y-92845050D01*
X99386146Y-92849516D01*
X99436942Y-92897491D01*
X99453736Y-92965312D01*
X99431198Y-93031447D01*
X99386146Y-93070484D01*
X99377382Y-93074949D01*
X99205413Y-93199890D01*
X99055090Y-93350213D01*
X98930151Y-93522179D01*
X98833644Y-93711585D01*
X98767953Y-93913760D01*
X98734700Y-94123713D01*
X98734700Y-94336287D01*
X98767954Y-94546243D01*
X98802857Y-94653664D01*
X98833644Y-94748414D01*
X98930151Y-94937820D01*
X99055090Y-95109786D01*
X99205413Y-95260109D01*
X99377382Y-95385050D01*
X99386146Y-95389516D01*
X99436942Y-95437491D01*
X99453736Y-95505312D01*
X99431198Y-95571447D01*
X99386146Y-95610484D01*
X99377382Y-95614949D01*
X99205413Y-95739890D01*
X99055090Y-95890213D01*
X98930151Y-96062179D01*
X98833644Y-96251585D01*
X98767953Y-96453760D01*
X98734700Y-96663713D01*
X98734700Y-96876287D01*
X98767954Y-97086243D01*
X98827745Y-97270261D01*
X98833644Y-97288414D01*
X98930151Y-97477820D01*
X99055090Y-97649786D01*
X99205413Y-97800109D01*
X99377382Y-97925050D01*
X99386146Y-97929516D01*
X99436942Y-97977491D01*
X99453736Y-98045312D01*
X99431198Y-98111447D01*
X99386146Y-98150484D01*
X99377382Y-98154949D01*
X99205413Y-98279890D01*
X99055090Y-98430213D01*
X98930151Y-98602179D01*
X98833644Y-98791585D01*
X98767953Y-98993760D01*
X98734700Y-99203713D01*
X98734700Y-99416286D01*
X98767953Y-99626239D01*
X98833644Y-99828414D01*
X98930151Y-100017820D01*
X99055090Y-100189786D01*
X99059003Y-100193699D01*
X99092488Y-100255022D01*
X99087504Y-100324714D01*
X99059003Y-100369061D01*
X94322381Y-105105682D01*
X94322379Y-105105685D01*
X94282342Y-105175033D01*
X94282341Y-105175034D01*
X94243323Y-105242614D01*
X94243323Y-105242615D01*
X94202399Y-105395343D01*
X94202399Y-105395345D01*
X94202399Y-105563446D01*
X94202400Y-105563459D01*
X94202400Y-127440411D01*
X94182715Y-127507450D01*
X94129911Y-127553205D01*
X94060753Y-127563149D01*
X94022105Y-127550896D01*
X93958414Y-127518444D01*
X93958413Y-127518443D01*
X93958412Y-127518443D01*
X93756243Y-127452754D01*
X93756241Y-127452753D01*
X93756240Y-127452753D01*
X93594957Y-127427208D01*
X93546287Y-127419500D01*
X93333713Y-127419500D01*
X93294202Y-127425757D01*
X93123759Y-127452753D01*
X92932818Y-127514794D01*
X92862977Y-127516789D01*
X92803144Y-127480709D01*
X92772316Y-127418008D01*
X92770500Y-127396863D01*
X92770500Y-106331265D01*
X92790185Y-106264226D01*
X92791398Y-106262374D01*
X92879390Y-106130685D01*
X92879390Y-106130684D01*
X92879394Y-106130679D01*
X92939737Y-105984997D01*
X92970500Y-105830342D01*
X92970500Y-105672658D01*
X92970500Y-105672655D01*
X92970499Y-105672653D01*
X92945117Y-105545050D01*
X92939737Y-105518003D01*
X92939735Y-105517998D01*
X92879397Y-105372327D01*
X92879390Y-105372314D01*
X92791789Y-105241211D01*
X92791786Y-105241207D01*
X92680292Y-105129713D01*
X92680288Y-105129710D01*
X92549185Y-105042109D01*
X92549172Y-105042102D01*
X92403501Y-104981764D01*
X92403489Y-104981761D01*
X92248845Y-104951000D01*
X92248842Y-104951000D01*
X92091158Y-104951000D01*
X92091155Y-104951000D01*
X91936510Y-104981761D01*
X91936498Y-104981764D01*
X91790827Y-105042102D01*
X91790814Y-105042109D01*
X91659711Y-105129710D01*
X91659707Y-105129713D01*
X91548213Y-105241207D01*
X91548210Y-105241211D01*
X91460609Y-105372314D01*
X91460602Y-105372327D01*
X91400264Y-105517998D01*
X91400261Y-105518010D01*
X91369500Y-105672653D01*
X91369500Y-105830346D01*
X91400261Y-105984989D01*
X91400264Y-105985001D01*
X91460602Y-106130672D01*
X91460609Y-106130685D01*
X91548602Y-106262374D01*
X91569480Y-106329051D01*
X91569500Y-106331265D01*
X91569500Y-127396863D01*
X91549815Y-127463902D01*
X91497011Y-127509657D01*
X91427853Y-127519601D01*
X91407182Y-127514794D01*
X91216240Y-127452753D01*
X91054957Y-127427208D01*
X91006287Y-127419500D01*
X90793713Y-127419500D01*
X90745042Y-127427208D01*
X90583760Y-127452753D01*
X90583757Y-127452754D01*
X90386679Y-127516789D01*
X90381585Y-127518444D01*
X90192179Y-127614951D01*
X90020213Y-127739890D01*
X89869890Y-127890213D01*
X89744949Y-128062182D01*
X89740484Y-128070946D01*
X89692509Y-128121742D01*
X89624688Y-128138536D01*
X89558553Y-128115998D01*
X89519516Y-128070946D01*
X89515050Y-128062182D01*
X89390109Y-127890213D01*
X89239786Y-127739890D01*
X89067820Y-127614951D01*
X88878414Y-127518444D01*
X88878413Y-127518443D01*
X88878412Y-127518443D01*
X88676243Y-127452754D01*
X88676241Y-127452753D01*
X88676240Y-127452753D01*
X88514957Y-127427208D01*
X88466287Y-127419500D01*
X88253713Y-127419500D01*
X88205042Y-127427208D01*
X88043760Y-127452753D01*
X88043757Y-127452754D01*
X87846679Y-127516789D01*
X87841585Y-127518444D01*
X87652179Y-127614951D01*
X87480213Y-127739890D01*
X87329890Y-127890213D01*
X87204949Y-128062182D01*
X87200484Y-128070946D01*
X87152509Y-128121742D01*
X87084688Y-128138536D01*
X87018553Y-128115998D01*
X86979516Y-128070946D01*
X86975050Y-128062182D01*
X86850109Y-127890213D01*
X86699786Y-127739890D01*
X86527820Y-127614951D01*
X86338414Y-127518444D01*
X86338413Y-127518443D01*
X86338412Y-127518443D01*
X86136243Y-127452754D01*
X86136241Y-127452753D01*
X86136240Y-127452753D01*
X85974957Y-127427208D01*
X85926287Y-127419500D01*
X85713713Y-127419500D01*
X85665042Y-127427208D01*
X85503760Y-127452753D01*
X85503757Y-127452754D01*
X85306679Y-127516789D01*
X85301585Y-127518444D01*
X85112179Y-127614951D01*
X84940213Y-127739890D01*
X84789890Y-127890213D01*
X84664949Y-128062182D01*
X84660484Y-128070946D01*
X84612509Y-128121742D01*
X84544688Y-128138536D01*
X84478553Y-128115998D01*
X84439516Y-128070946D01*
X84435050Y-128062182D01*
X84310109Y-127890213D01*
X84159786Y-127739890D01*
X83987820Y-127614951D01*
X83798414Y-127518444D01*
X83798413Y-127518443D01*
X83798412Y-127518443D01*
X83596243Y-127452754D01*
X83596241Y-127452753D01*
X83596240Y-127452753D01*
X83434957Y-127427208D01*
X83386287Y-127419500D01*
X83173713Y-127419500D01*
X83125042Y-127427208D01*
X82963760Y-127452753D01*
X82963757Y-127452754D01*
X82766679Y-127516789D01*
X82761585Y-127518444D01*
X82572179Y-127614951D01*
X82400213Y-127739890D01*
X82249890Y-127890213D01*
X82124951Y-128062179D01*
X82028444Y-128251585D01*
X81962753Y-128453760D01*
X81929500Y-128663713D01*
X75178488Y-128663713D01*
X75178476Y-128659161D01*
X75147650Y-116714038D01*
X77139500Y-116714038D01*
X77139500Y-116965962D01*
X77170084Y-117159060D01*
X77178910Y-117214785D01*
X77256760Y-117454383D01*
X77371132Y-117678848D01*
X77519201Y-117882649D01*
X77519205Y-117882654D01*
X77697345Y-118060794D01*
X77697350Y-118060798D01*
X77837105Y-118162335D01*
X77901155Y-118208870D01*
X78044184Y-118281747D01*
X78125616Y-118323239D01*
X78125618Y-118323239D01*
X78125621Y-118323241D01*
X78365215Y-118401090D01*
X78614038Y-118440500D01*
X78614039Y-118440500D01*
X78865961Y-118440500D01*
X78865962Y-118440500D01*
X79114785Y-118401090D01*
X79354379Y-118323241D01*
X79578845Y-118208870D01*
X79782656Y-118060793D01*
X79960793Y-117882656D01*
X80108870Y-117678845D01*
X80223241Y-117454379D01*
X80301090Y-117214785D01*
X80340500Y-116965962D01*
X80340500Y-116714038D01*
X80301090Y-116465215D01*
X80223241Y-116225621D01*
X80223239Y-116225618D01*
X80223239Y-116225616D01*
X80181747Y-116144184D01*
X80108870Y-116001155D01*
X80089952Y-115975117D01*
X79960798Y-115797350D01*
X79960794Y-115797345D01*
X79782654Y-115619205D01*
X79782649Y-115619201D01*
X79578848Y-115471132D01*
X79578847Y-115471131D01*
X79578845Y-115471130D01*
X79508747Y-115435413D01*
X79354383Y-115356760D01*
X79114785Y-115278910D01*
X78865962Y-115239500D01*
X78614038Y-115239500D01*
X78489626Y-115259205D01*
X78365214Y-115278910D01*
X78125616Y-115356760D01*
X77901151Y-115471132D01*
X77697350Y-115619201D01*
X77697345Y-115619205D01*
X77519205Y-115797345D01*
X77519201Y-115797350D01*
X77371132Y-116001151D01*
X77256760Y-116225616D01*
X77178910Y-116465214D01*
X77178910Y-116465215D01*
X77139500Y-116714038D01*
X75147650Y-116714038D01*
X75147638Y-116709486D01*
X75009998Y-63374038D01*
X77139500Y-63374038D01*
X77139500Y-63625961D01*
X77178910Y-63874785D01*
X77256760Y-64114383D01*
X77371132Y-64338848D01*
X77519201Y-64542649D01*
X77519205Y-64542654D01*
X77697345Y-64720794D01*
X77697350Y-64720798D01*
X77820815Y-64810500D01*
X77901155Y-64868870D01*
X78039735Y-64939480D01*
X78125616Y-64983239D01*
X78125618Y-64983239D01*
X78125621Y-64983241D01*
X78365215Y-65061090D01*
X78614038Y-65100500D01*
X78614039Y-65100500D01*
X78865961Y-65100500D01*
X78865962Y-65100500D01*
X79114785Y-65061090D01*
X79354379Y-64983241D01*
X79578845Y-64868870D01*
X79782656Y-64720793D01*
X79960793Y-64542656D01*
X80108870Y-64338845D01*
X80223241Y-64114379D01*
X80301090Y-63874785D01*
X80340500Y-63625962D01*
X80340500Y-63374038D01*
X80301090Y-63125215D01*
X80223241Y-62885621D01*
X80223239Y-62885618D01*
X80223239Y-62885616D01*
X80181747Y-62804184D01*
X80108870Y-62661155D01*
X80035740Y-62560500D01*
X79960798Y-62457350D01*
X79960794Y-62457345D01*
X79782654Y-62279205D01*
X79782649Y-62279201D01*
X79578848Y-62131132D01*
X79578847Y-62131131D01*
X79578845Y-62131130D01*
X79497703Y-62089786D01*
X79354383Y-62016760D01*
X79114785Y-61938910D01*
X79092719Y-61935415D01*
X78865962Y-61899500D01*
X78614038Y-61899500D01*
X78498396Y-61917816D01*
X78365214Y-61938910D01*
X78125616Y-62016760D01*
X77901151Y-62131132D01*
X77697350Y-62279201D01*
X77697345Y-62279205D01*
X77519205Y-62457345D01*
X77519201Y-62457350D01*
X77371132Y-62661151D01*
X77256760Y-62885616D01*
X77178910Y-63125214D01*
X77139500Y-63374038D01*
X75009998Y-63374038D01*
X75009986Y-63369486D01*
X75000321Y-59624320D01*
X75019833Y-59557230D01*
X75072519Y-59511339D01*
X75124321Y-59500000D01*
X90300020Y-59500000D01*
X101804003Y-59257299D01*
X113998256Y-59000036D01*
X114001747Y-59000013D01*
X153577095Y-59299071D01*
G37*
%TD.AperFunction*%
%TD*%
M02*
